<svg width="425" height="482" viewBox="0 0 425 482" fill="none" xmlns="http://www.w3.org/2000/svg">
<path d="M213.766 201.554C211.258 201.567 208.778 201.023 206.507 199.965C204.233 198.908 202.222 197.36 200.617 195.433L96.3297 70.2883C93.5416 67.1711 92 63.1354 92 58.9528C92 54.7705 93.5416 50.7348 96.3297 47.6173L137.591 5.44909C139.203 3.7737 141.141 2.44676 143.285 1.54989C145.43 0.653025 147.736 0.205499 150.06 0.234745H275.204C279.711 0.238825 284.035 2.03279 287.22 5.22238L328.255 46.0303C331.159 49.0304 332.875 52.9828 333.084 57.153C333.29 61.3228 331.977 65.4265 329.388 68.7014L226.915 194.979C225.367 196.986 223.372 198.604 221.091 199.706C218.808 200.808 216.3 201.363 213.766 201.327V201.554ZM132.377 60.3131L213.539 157.799L293.341 59.4062L268.176 34.2413H157.315L132.377 60.3131Z" fill="#006347"/>
<path d="M212.054 481.693C170.119 481.647 129.139 468.797 94.2799 444.764C59.4211 420.73 32.247 386.587 16.1863 346.647C0.125839 306.706 -4.10215 262.757 4.036 220.339C12.1744 177.925 32.3145 138.944 61.9149 108.318C63.9565 106.059 66.4182 104.247 69.1534 102.99C71.8886 101.734 74.8411 101.058 77.835 101.004C80.8289 100.949 83.8028 101.517 86.5794 102.673C89.3559 103.83 91.8779 105.551 93.9954 107.734C96.1128 109.917 97.7821 112.518 98.9036 115.38C100.025 118.243 100.576 121.31 100.523 124.397C100.47 127.484 99.8148 130.528 98.5962 133.348C97.3772 136.169 95.6201 138.707 93.4293 140.812C70.0792 165.032 54.209 195.84 47.8202 229.349C41.4314 262.861 44.8106 297.571 57.5314 329.103C70.2522 360.634 91.7448 387.574 119.298 406.528C146.851 425.479 179.231 435.592 212.351 435.592C245.474 435.592 277.854 425.479 305.405 406.528C332.959 387.574 354.451 360.634 367.173 329.103C379.892 297.571 383.272 262.861 376.883 229.349C370.494 195.84 354.624 165.032 331.274 140.812C327.099 136.501 324.754 130.657 324.754 124.565C324.754 118.472 327.099 112.628 331.274 108.318C333.325 106.148 335.775 104.425 338.48 103.248C341.186 102.07 344.093 101.464 347.031 101.464C349.968 101.464 352.876 102.07 355.581 103.248C358.29 104.425 360.739 106.148 362.788 108.318C392.492 138.928 412.72 177.935 420.917 220.404C429.114 262.87 424.91 306.89 408.838 346.895C392.765 386.899 365.544 421.089 330.622 445.138C295.701 469.186 254.643 482.015 212.649 482L212.054 481.693Z" fill="#006347"/>
</svg>
