<svg width="56" height="54" viewBox="0 0 56 54" fill="none" xmlns="http://www.w3.org/2000/svg">
<path d="M20.4047 46.6642C21.1792 47.9141 21.5755 49.9869 21.3709 51.2667C21.1365 52.7301 19.9401 53.6787 18.8704 53.767C17.2369 53.9019 16.575 52.6956 17.5071 51.9487C18.26 51.3449 18.7361 50.7696 19.1337 50.0877C19.5316 49.4061 19.7247 48.2359 19.4958 47.2322C19.2187 46.018 19.7759 45.6486 20.4047 46.6642Z" fill="url(#paint0_linear_45_524)"/>
<path d="M21.186 41.4644C22.4363 42.2389 24.5094 42.6358 25.7886 42.4306C27.252 42.1962 28.2009 41.0001 28.2888 39.9301C28.4241 38.2973 27.2178 37.635 26.4705 38.5665C25.8671 39.3194 25.2922 39.7954 24.6092 40.1937C23.9279 40.5907 22.7581 40.7844 21.754 40.5555C20.5402 40.2787 20.1705 40.8356 21.186 41.4644Z" fill="url(#paint1_linear_45_524)"/>
<path d="M5.4035 30.1257C4.55213 29.4569 3.06676 28.9972 2.11361 29.0432C1.02322 29.0947 0.231283 29.8933 0.0795937 30.6691C-0.152538 31.8541 0.67617 32.4365 1.29935 31.8163C1.80301 31.3139 2.26234 31.0122 2.79392 30.7768C3.32549 30.5417 4.19754 30.4951 4.9133 30.745C5.7801 31.046 6.09595 30.6691 5.4035 30.1257Z" fill="url(#paint2_linear_45_524)"/>
<path d="M10.6144 32.7462C10.6732 31.665 11.3072 30.2456 11.9695 29.559C12.7273 28.774 13.8498 28.7047 14.5334 29.1017C15.5775 29.7088 15.4692 30.7161 14.5912 30.7749C13.882 30.8221 13.3524 30.9692 12.8251 31.2135C12.2971 31.4581 11.6878 32.0833 11.4031 32.7859C11.0587 33.6369 10.5668 33.6248 10.6144 32.7462Z" fill="url(#paint3_linear_45_524)"/>
<path d="M36.0443 53.1675C36.7193 52.8691 37.7963 51.7714 38.1407 50.9611C38.3728 50.4158 38.5491 50.4407 38.9861 51.0389C39.6215 51.9097 40.6908 52.4032 42.0541 52.6868C43.4186 52.9712 53.9594 53.0125 55.3795 53.0493C56.1996 53.071 56.1789 53.7099 55.3509 53.7099C53.6468 53.7099 37.1147 53.7099 36.0919 53.7099C35.6713 53.7099 35.623 53.3537 36.0443 53.1675Z" fill="url(#paint4_linear_45_524)"/>
<path d="M2.30909 20.1149C2.6082 19.4391 3.70483 18.3622 4.51549 18.0181C5.06085 17.7853 5.03589 17.6087 4.43734 17.172C3.56693 16.5364 3.07378 15.4676 2.78944 14.1031C2.50576 12.7402 2.46406 2.19841 2.42729 0.778705C2.40562 -0.0417974 1.76701 -0.0201243 1.76701 0.806617C1.76701 2.51198 1.76701 19.0438 1.76701 20.0663C1.76701 20.4872 2.12292 20.5348 2.30909 20.1149Z" fill="url(#paint5_linear_45_524)"/>
<path d="M37.6789 49.7589C36.0517 53.388 30.8082 54.1425 27.4451 52.93C23.5288 51.5191 21.7718 47.1569 19.6988 43.9047C17.5272 40.4963 13.271 37.6861 9.09526 39.0871C7.10786 39.754 5.42844 41.3309 4.58693 43.2395C3.78711 45.0536 4.04616 47.2367 4.82792 49.0097C6.35105 52.4604 11.3962 54.4491 13.9552 50.954C15.9436 48.2387 14.1962 44.0266 10.8584 43.5035C9.16257 43.2379 8.01701 44.7627 8.03146 46.3259C8.03901 47.1237 8.53413 47.8109 9.1051 48.3189C9.22462 48.4249 9.38025 48.5428 9.55361 48.6564C9.66623 48.2023 10.1348 47.7919 10.7668 47.6543C11.5715 47.4796 12.3277 47.8119 12.4557 48.3986C12.5726 48.9381 12.1149 49.4989 11.4153 49.7228C11.3391 49.7491 11.2721 49.7684 11.2291 49.778C9.63865 50.1289 8.03114 49.6118 7.00148 48.3241C5.95115 47.0111 6.33333 45.0083 7.57607 43.9543C10.4178 41.5434 14.6657 42.8144 16.1363 46.0754C16.8554 47.6707 16.4049 49.5189 15.4662 50.9117C14.4596 52.4066 12.6971 53.1952 10.9786 53.5006C7.29829 54.1553 3.87215 51.9141 2.79062 48.3996C1.56594 44.4192 3.86065 40.7879 7.40041 39.0257C11.0485 37.2101 15.5283 37.8312 18.6796 40.3519C21.8073 42.8534 23.0363 47.014 25.6242 49.9871C27.1178 51.703 29.244 52.7316 31.5309 52.6909C33.6952 52.6522 35.5316 51.4741 36.2746 49.4332C36.8341 47.8969 36.6962 46.1384 35.8836 44.7243C34.936 43.076 32.6938 42.1675 30.8752 42.7592C29.0155 43.3633 28.6599 45.6035 29.1971 47.234C29.487 48.1136 30.1637 48.8777 31.0101 49.2513C31.7213 49.5652 32.4187 49.3863 32.7326 48.8353C32.4601 48.573 32.2811 48.1629 32.2811 47.697C32.2811 46.9044 32.7897 46.2618 33.4178 46.2618C34.0452 46.2618 34.5538 46.9044 34.5538 47.697C34.5502 49.4966 32.6718 50.061 31.1671 50.1775C29.3921 50.3141 28.0052 49.054 27.474 47.4406C26.1285 43.3597 30.8588 41.2948 34.1549 41.9417C37.7731 42.6515 39.0842 46.6263 37.6789 49.7589Z" fill="url(#paint6_linear_45_524)"/>
<path d="M14.2226 23.2168C14.1162 25.2302 12.9973 26.8856 11.0316 27.4359C8.67183 28.0949 5.74934 26.6578 5.96374 23.9359C6.05929 22.7233 6.91854 21.8651 8.05358 21.5715C9.08258 21.3053 10.5725 21.3489 11.2765 22.2656C11.6925 22.7975 11.7079 23.4788 11.3126 23.7881C10.917 24.0977 10.2593 23.9175 9.84364 23.3853C9.60166 23.076 9.49956 22.7171 9.53108 22.4088C8.65542 21.4885 7.79354 23.0421 7.66648 23.8439C7.4859 24.9764 8.15241 26.0182 9.0655 26.622C10.1194 27.3197 11.2325 26.5313 11.8245 25.6222C12.4601 24.6464 12.5984 23.382 12.5058 22.2479C12.3121 19.8856 9.67259 18.2876 7.44978 18.851C5.21974 19.4154 3.80791 21.6911 3.95008 23.9135C4.09619 26.2129 5.92763 27.8673 7.42745 29.4039C8.97652 30.9901 10.6806 32.5549 10.4251 34.9685C10.2209 36.8991 8.77821 38.0158 6.97632 38.3658C5.26899 38.6967 3.20181 38.197 2.50739 36.4332C1.9177 34.9347 2.60917 33.4073 4.02297 32.6941C5.27228 32.0651 7.25934 32.4387 7.86708 33.7727C8.19804 34.4406 8.02173 35.2023 7.47341 35.4738C6.92543 35.7453 6.21196 35.4249 5.881 34.7567C5.65806 34.3056 5.67022 33.8154 5.86689 33.4592C5.67809 33.2257 5.45089 33.0366 5.25323 33.1108C4.78766 33.2842 4.46786 33.7586 4.2331 34.169C3.66443 35.1642 4.0558 36.3564 4.77452 37.145C5.54315 37.9892 6.71431 37.8716 7.57159 37.2534C8.47516 36.602 8.77066 35.3733 8.75753 34.323C8.72699 31.961 6.29306 30.208 4.80933 28.654C3.35252 27.1279 2.10978 25.4022 2.24571 23.1837C2.511 18.8674 7.82046 17.0747 11.3474 18.5834C13.3161 19.4249 14.3346 21.1034 14.2226 23.2168Z" fill="url(#paint7_linear_45_524)"/>
<defs>
<linearGradient id="paint0_linear_45_524" x1="19.2528" y1="46.0757" x2="19.2528" y2="53.7774" gradientUnits="userSpaceOnUse">
<stop stop-color="#006347"/>
<stop offset="1" stop-color="#00C990"/>
</linearGradient>
<linearGradient id="paint1_linear_45_524" x1="24.4485" y1="38.1411" x2="24.4485" y2="42.4842" gradientUnits="userSpaceOnUse">
<stop stop-color="#006347"/>
<stop offset="1" stop-color="#00C990"/>
</linearGradient>
<linearGradient id="paint2_linear_45_524" x1="2.91045" y1="29.04" x2="2.91045" y2="32.0676" gradientUnits="userSpaceOnUse">
<stop stop-color="#006347"/>
<stop offset="1" stop-color="#00C990"/>
</linearGradient>
<linearGradient id="paint3_linear_45_524" x1="12.9472" y1="28.8647" x2="12.9472" y2="33.4148" gradientUnits="userSpaceOnUse">
<stop stop-color="#006347"/>
<stop offset="1" stop-color="#00C990"/>
</linearGradient>
<linearGradient id="paint4_linear_45_524" x1="45.8674" y1="50.5703" x2="45.8674" y2="53.7099" gradientUnits="userSpaceOnUse">
<stop stop-color="#006347"/>
<stop offset="1" stop-color="#00C990"/>
</linearGradient>
<linearGradient id="paint5_linear_45_524" x1="3.33663" y1="0.174805" x2="3.33663" y2="20.4069" gradientUnits="userSpaceOnUse">
<stop stop-color="#006347"/>
<stop offset="1" stop-color="#00C990"/>
</linearGradient>
<linearGradient id="paint6_linear_45_524" x1="20.3447" y1="37.9814" x2="20.3447" y2="53.6141" gradientUnits="userSpaceOnUse">
<stop stop-color="#006347"/>
<stop offset="1" stop-color="#00C990"/>
</linearGradient>
<linearGradient id="paint7_linear_45_524" x1="8.23323" y1="18.0566" x2="8.23323" y2="38.4615" gradientUnits="userSpaceOnUse">
<stop stop-color="#006347"/>
<stop offset="1" stop-color="#00C990"/>
</linearGradient>
</defs>
</svg>
