<svg width="20" height="403" viewBox="0 0 20 403" fill="none" xmlns="http://www.w3.org/2000/svg">
<path d="M5.667 103.038C5.667 103.038 5.57784 103.173 5.40895 103.428C5.24138 103.686 4.98058 104.054 4.69473 104.593C4.0995 105.639 3.31593 107.291 2.63741 109.564C2.55412 109.848 2.46434 110.138 2.38104 110.439C2.30441 110.743 2.22635 111.055 2.14661 111.373C2.10701 111.532 2.06714 111.693 2.02726 111.856C1.99219 112.021 1.9572 112.187 1.92177 112.355C1.85206 112.692 1.77685 113.034 1.70883 113.386C1.44935 114.796 1.23117 116.328 1.074 117.955C0.926945 119.582 0.835391 121.302 0.810438 123.086C0.787883 124.869 0.8385 126.715 0.9495 128.594C1.26137 133.705 2.01439 138.382 2.86634 142.255C3.29302 144.192 3.74705 145.932 4.18937 147.438C4.63017 148.947 5.0676 150.215 5.42457 151.233C5.94175 153.406 6.74752 156.541 7.70389 160.302C8.1732 162.186 8.68726 164.224 9.17637 166.397C9.6654 168.569 10.1434 170.87 10.5569 173.271C11.1546 176.807 11.5385 180.231 11.6992 183.379C11.8979 186.459 11.5351 189.262 11.1636 191.601C10.9749 192.771 10.7744 193.827 10.5961 194.756C10.4178 195.685 10.2617 196.487 10.1424 197.146C10.022 197.806 9.93846 198.323 9.8874 198.675C9.8382 199.027 9.81218 199.212 9.81218 199.212C9.81218 199.212 9.85791 199.036 9.94574 198.701C10.0331 198.367 10.1687 197.88 10.3508 197.256C10.534 196.631 10.7581 195.867 11.0179 194.98C11.2749 194.089 11.5622 193.066 11.8414 191.905C12.1199 190.745 12.3947 189.447 12.5993 188.005C12.6489 187.645 12.7024 187.277 12.7366 186.897C12.7766 186.519 12.8175 186.134 12.8369 185.737C12.8494 185.539 12.8619 185.34 12.8744 185.14C12.8844 184.938 12.8855 184.734 12.8911 184.529C12.8949 184.323 12.899 184.116 12.9031 183.908C12.8993 183.706 12.8959 183.502 12.8924 183.297C12.8616 180.02 12.549 176.414 11.9288 172.751C11.5007 170.265 10.969 167.915 10.405 165.732C9.8406 163.547 9.23152 161.539 8.65849 159.7C7.49539 156.037 6.44675 153.075 5.73848 151.029C5.47626 149.943 5.15436 148.623 4.83281 147.079C4.50985 145.536 4.17791 143.772 3.86294 141.83C3.23335 137.947 2.66103 133.349 2.35955 128.405C2.25131 126.586 2.18089 124.808 2.16499 123.091C2.15141 121.374 2.18506 119.72 2.26107 118.149C2.34739 116.579 2.4813 115.097 2.6502 113.718C2.69602 113.375 2.74806 113.04 2.7945 112.709C2.81812 112.544 2.84174 112.38 2.86492 112.218C2.89342 112.057 2.92077 111.899 2.94892 111.742C3.00477 111.427 3.05885 111.119 3.11267 110.817C3.1719 110.518 3.23788 110.23 3.29782 109.945C3.78622 107.67 4.39432 105.931 4.87375 104.786C5.10161 104.199 5.31775 103.781 5.45477 103.486C5.59418 103.193 5.667 103.038 5.667 103.038Z" fill="#9A9A9A"/>
<path d="M4.78866 103.614C4.78866 103.614 4.73689 103.784 4.6377 104.108C4.54162 104.434 4.38906 104.911 4.21492 105.538C3.88574 106.804 3.42993 108.667 3.11283 111.08C2.79377 113.488 2.63384 116.44 2.78267 119.7C2.87422 121.325 3.01675 123.028 3.25615 124.764C3.49689 126.497 3.80138 128.273 4.18056 130.054C4.69285 132.477 5.29021 134.759 5.89582 136.887C6.50321 139.015 7.11931 140.991 7.69651 142.801C8.85712 146.417 9.84431 149.386 10.4989 151.45C10.7316 152.537 11.0071 153.874 11.313 155.417C11.6145 156.969 11.9207 158.708 12.2565 160.66C12.5975 162.598 12.9794 164.686 13.345 166.895C13.7099 169.102 14.0572 171.433 14.2982 173.851C14.6568 177.403 14.7127 180.822 14.3311 183.827C14.3072 184.014 14.2829 184.201 14.2583 184.387C14.2295 184.569 14.2004 184.752 14.1713 184.933C14.1192 185.297 14.0412 185.644 13.978 185.994C13.9038 186.335 13.8275 186.685 13.7495 187.001C13.6738 187.31 13.5757 187.609 13.4754 187.904C13.0578 189.079 12.518 190.119 12.039 191.091C11.5555 192.062 11.1197 192.97 10.7947 193.827C10.4663 194.679 10.2533 195.48 10.1451 196.154C10.033 196.828 10.0205 197.367 10.0303 197.725C10.0292 197.905 10.0452 198.04 10.0494 198.132C10.0552 198.222 10.0583 198.27 10.0583 198.27C10.0583 198.27 10.0605 198.222 10.0649 198.131C10.0719 198.04 10.0708 197.905 10.0906 197.73C10.1194 197.38 10.187 196.866 10.3556 196.255C10.5207 195.642 10.7889 194.939 11.1697 194.193C11.5471 193.441 12.0331 192.648 12.5843 191.764C13.1303 190.873 13.756 189.903 14.3107 188.632C14.4457 188.31 14.5802 187.975 14.6943 187.607C14.8067 187.248 14.9032 186.898 15.0044 186.529C15.0929 186.158 15.1952 185.786 15.2708 185.397C15.3115 185.203 15.3517 185.008 15.3923 184.811C15.4269 184.612 15.4627 184.412 15.4977 184.211C15.5723 183.808 15.6212 183.395 15.6815 182.977C15.7273 182.558 15.7835 182.135 15.8147 181.702C15.8938 180.841 15.9313 179.956 15.9479 179.058C15.976 177.259 15.8824 175.406 15.6989 173.541C15.4456 171.005 15.0447 168.612 14.6066 166.387C14.1675 164.161 13.6909 162.098 13.2478 160.208C13.0266 159.265 12.8146 158.363 12.5978 157.498C12.5444 157.282 12.4921 157.07 12.44 156.86C12.3848 156.653 12.3304 156.448 12.2766 156.247C12.168 155.844 12.0629 155.455 11.9613 155.077C11.5377 153.577 11.149 152.296 10.8173 151.263C10.357 149.079 9.60979 145.931 8.64898 142.193C7.70033 138.449 6.53065 134.12 5.53023 129.418C5.16224 127.689 4.84825 125.986 4.57945 124.332C4.31163 122.677 4.12328 121.063 3.97072 119.519C3.70015 116.425 3.67724 113.596 3.81426 111.227C3.94781 108.855 4.22531 106.953 4.42511 105.64C4.65919 104.336 4.78866 103.614 4.78866 103.614Z" fill="#9A9A9A"/>
<path d="M5.66702 103.038C5.66702 103.038 5.59421 103.192 5.45541 103.485C5.385 103.631 5.30037 103.815 5.20882 104.04C5.11344 104.262 5.00342 104.518 4.89349 104.819C4.6635 105.414 4.41104 106.172 4.17891 107.096C3.9483 108.019 3.73944 109.112 3.62391 110.357C3.50874 111.599 3.48068 112.988 3.57401 114.458C3.66281 115.929 3.86882 117.475 4.15432 119.058C4.44256 120.641 4.80744 122.262 5.20953 123.91C5.41279 124.73 5.61987 125.564 5.82935 126.41C6.05588 127.251 6.28516 128.104 6.51755 128.966C6.8367 130.138 7.15549 131.286 7.47144 132.409C7.79165 133.528 8.08922 134.637 8.42711 135.678C9.08378 137.777 9.71781 139.752 10.3117 141.565C10.6058 142.472 10.8975 143.334 11.1788 144.148C11.4605 144.962 11.7276 145.734 11.9784 146.456C12.4824 147.9 12.9264 149.146 13.2917 150.158C13.8262 152.314 14.6102 155.447 15.6064 159.183C16.0844 161.034 16.543 163.072 16.9093 165.258C17.2734 167.443 17.534 169.783 17.5978 172.2C17.6419 173.977 17.5929 175.715 17.3959 177.356L17.3661 177.665C17.354 177.768 17.3366 177.869 17.3227 177.969C17.2929 178.171 17.2638 178.371 17.2343 178.572C17.2055 178.772 17.1767 178.971 17.1479 179.17C17.1142 179.366 17.0723 179.557 17.0356 179.751C16.9554 180.133 16.894 180.521 16.8034 180.891C16.7108 181.259 16.6196 181.624 16.5294 181.983L16.4618 182.253L16.3807 182.512C16.3272 182.685 16.2737 182.857 16.2211 183.027C16.1149 183.36 16.0146 183.729 15.9065 184.005C15.6796 184.594 15.392 185.158 15.0971 185.691C14.5019 186.758 13.8848 187.729 13.3489 188.66C12.8099 189.587 12.3468 190.481 12.0002 191.329C11.8282 191.755 11.6874 192.17 11.5753 192.563C11.4706 192.963 11.3891 193.336 11.3464 193.683C11.2521 194.373 11.286 194.926 11.3357 195.277C11.352 195.457 11.3888 195.587 11.4026 195.676C11.4199 195.764 11.4286 195.809 11.4286 195.809C11.4286 195.809 11.4252 195.762 11.4182 195.671C11.4144 195.579 11.3926 195.446 11.3964 195.267C11.3853 194.916 11.4095 194.389 11.5604 193.768C11.6305 193.457 11.7398 193.127 11.8699 192.78C12.0079 192.436 12.1734 192.078 12.3683 191.709C12.7627 190.977 13.2685 190.208 13.8592 189.391C14.4482 188.567 15.1218 187.701 15.8155 186.657C16.16 186.132 16.511 185.559 16.8287 184.862C16.9952 184.496 17.1042 184.157 17.2405 183.797C17.3054 183.619 17.3713 183.438 17.4372 183.257L17.5364 182.985L17.6224 182.7C17.7358 182.318 17.851 181.931 17.9672 181.538C18.0799 181.144 18.1632 180.728 18.2635 180.315C18.3099 180.107 18.3623 179.901 18.4053 179.688C18.4428 179.473 18.4806 179.259 18.5188 179.042C18.5565 178.825 18.594 178.608 18.6322 178.388C18.6506 178.278 18.6713 178.169 18.6873 178.058L18.7279 177.722C18.9828 175.936 19.0602 174.037 19.012 172.117C18.9433 169.503 18.62 167.016 18.1702 164.747C17.7175 162.475 17.15 160.41 16.5572 158.569C15.3597 154.95 14.3299 151.976 13.6039 149.947C13.3344 148.871 12.999 147.552 12.6045 146.035C12.2049 144.522 11.7522 142.808 11.2576 140.935C10.7647 139.063 10.2194 137.039 9.62839 134.91C9.32239 133.851 9.05323 132.74 8.75282 131.618C8.45623 130.494 8.1496 129.349 7.8333 128.189C7.59807 127.336 7.36568 126.494 7.1364 125.663C6.91262 124.826 6.6924 124.002 6.47564 123.191C6.04131 121.579 5.63586 120.032 5.29691 118.542C4.96186 117.055 4.69582 115.624 4.53314 114.266C4.36664 112.907 4.30696 111.622 4.32881 110.447C4.37942 108.093 4.76482 106.211 5.09329 104.96C5.1717 104.644 5.25286 104.37 5.32363 104.131C5.3913 103.89 5.45444 103.691 5.50816 103.531C5.61223 103.208 5.66702 103.038 5.66702 103.038Z" fill="#9A9A9A"/>
<path d="M4.50328 107.262C4.50328 107.262 4.5515 107.037 4.62431 106.651C4.66143 106.457 4.72874 106.23 4.78841 105.972C4.87127 105.723 4.94692 105.438 5.07071 105.169C5.30283 104.62 5.63548 104.085 6.08676 103.796C6.19252 103.708 6.3188 103.662 6.43637 103.597L6.62684 103.53L6.82558 103.481C7.09473 103.432 7.38297 103.408 7.68614 103.459C8.51038 103.567 9.2943 104.003 9.91519 104.532C10.2322 104.79 10.4942 105.1 10.7282 105.386C10.9534 105.684 11.1428 105.974 11.2829 106.232C11.3856 106.881 11.4442 107.822 11.3245 108.859C11.2507 109.408 11.1848 110.005 11.0543 110.554C10.9908 110.829 10.9194 111.096 10.8347 111.335C10.7963 111.461 10.7421 111.555 10.7009 111.672L10.6249 111.812L10.5888 111.884L10.5479 111.941C10.3921 112.177 10.234 112.31 10.0349 112.384C9.83572 112.452 9.59711 112.431 9.36508 112.345C8.89675 112.173 8.4753 111.753 8.2478 111.306C8.12987 111.083 8.06425 110.847 8.04551 110.622L8.03619 110.536L8.03823 110.455L8.0424 110.291C8.06114 110.193 8.06913 110.087 8.09373 110.002C8.11975 109.914 8.14337 109.836 8.16317 109.767L8.23421 109.604C8.27417 109.513 8.2953 109.465 8.2953 109.465L8.19434 109.537L8.06913 109.632L7.91338 109.811C7.85441 109.882 7.80442 109.987 7.74137 110.098L7.66642 110.297L7.62788 110.409L7.60187 110.531C7.52452 110.867 7.51653 111.303 7.59947 111.731C7.76357 112.591 8.2113 113.458 8.9217 114C9.27726 114.262 9.71362 114.449 10.2038 114.388C10.4462 114.348 10.7005 114.264 10.934 114.089L11.1088 113.957L11.2694 113.791C11.3804 113.683 11.471 113.549 11.5618 113.414L11.653 113.274L11.7294 113.127C11.7796 113.027 11.8296 112.928 11.8764 112.828C11.951 112.622 12.0377 112.417 12.0908 112.212C12.208 111.801 12.2775 111.398 12.325 111.011C12.3416 110.818 12.359 110.629 12.3756 110.441C12.3805 110.259 12.3849 110.078 12.3894 109.901C12.3954 109.722 12.3887 109.552 12.3818 109.385C12.3745 109.219 12.3676 109.056 12.3603 108.896C12.3464 108.73 12.3284 108.566 12.3108 108.409L12.2844 108.177L12.2434 107.954C12.2147 107.809 12.1872 107.668 12.1598 107.532C12.1259 107.399 12.0884 107.272 12.0537 107.151C11.9139 106.664 11.7411 106.288 11.5906 106.006C11.5358 105.653 11.4339 105.229 11.2718 104.76C11.1015 104.304 10.8789 103.789 10.5608 103.323C9.9405 102.384 8.98555 101.518 7.81277 101.357C7.38546 101.29 6.95043 101.353 6.5439 101.506C6.44267 101.551 6.34135 101.58 6.24385 101.642C6.14777 101.702 6.0524 101.76 5.958 101.819C5.77596 101.966 5.5973 102.103 5.44394 102.294C5.28268 102.463 5.15125 102.676 5.02498 102.875C4.96282 102.976 4.91327 103.092 4.86052 103.197C4.80919 103.305 4.75645 103.408 4.72039 103.523C4.64198 103.748 4.56393 103.958 4.5213 104.178C4.49733 104.285 4.47415 104.39 4.45124 104.493C4.43073 104.595 4.42176 104.7 4.40782 104.798C4.34752 105.193 4.35267 105.553 4.34717 105.858C4.3659 106.165 4.37487 106.422 4.40338 106.63C4.46234 107.045 4.50328 107.262 4.50328 107.262Z" fill="#9A9A9A"/>
<path d="M6.58386 190.384C6.58386 190.384 6.55784 190.477 6.509 190.654C6.46389 190.835 6.39481 191.1 6.3425 191.468C6.31746 191.652 6.29358 191.861 6.29251 192.103C6.29144 192.342 6.30636 192.62 6.39454 192.919C6.47952 193.221 6.66822 193.52 6.92139 193.662C7.17083 193.808 7.43856 193.815 7.69457 193.76C8.20624 193.635 8.69775 193.276 9.15116 192.725C9.37591 192.446 9.59134 192.113 9.77409 191.698C9.95622 191.286 10.1092 190.779 10.1522 190.176C10.173 189.878 10.1633 189.558 10.1144 189.244C10.0651 188.931 9.97771 188.629 9.86635 188.361C9.75571 188.091 9.62109 187.853 9.47617 187.651C9.33222 187.443 9.17744 187.27 9.01858 187.116C8.86043 186.964 8.69739 186.829 8.53267 186.715C8.36617 186.598 8.20482 186.497 8.02136 186.41C7.9322 186.366 7.84234 186.321 7.75078 186.28C7.65612 186.249 7.56004 186.218 7.46423 186.188L7.31993 186.144L7.16906 186.122C7.06844 186.109 6.96819 186.09 6.86554 186.088C6.30574 186.067 5.73165 186.284 5.25879 186.686C4.78256 187.085 4.40826 187.639 4.12695 188.22C3.56227 189.397 3.33059 190.668 3.23966 191.815C3.15192 192.968 3.22403 194.026 3.37499 194.916C3.5231 195.809 3.76828 196.528 4.01044 197.053C4.08707 197.351 4.18768 197.681 4.3358 198.016C4.37363 198.1 4.41208 198.185 4.45169 198.272C4.4936 198.358 4.54288 198.438 4.59039 198.523C4.68612 198.7 4.79126 198.847 4.89915 199.01C5.12248 199.324 5.3792 199.643 5.69 199.925C5.99938 200.206 6.36852 200.449 6.79059 200.57C7.21106 200.696 7.68276 200.667 8.13236 200.494C8.58293 200.318 9.00819 200.007 9.39154 199.621C10.1615 198.847 10.7908 197.82 11.3576 196.727C12.187 195.108 12.8134 193.472 13.3771 192C13.9369 190.526 14.4229 189.203 14.8746 188.137C15.322 187.067 15.7379 186.257 16.0699 185.747C16.233 185.488 16.3734 185.306 16.4705 185.182C16.5697 185.063 16.6221 185 16.6221 185C16.6221 185 16.5589 185.036 16.439 185.104C16.3203 185.18 16.1448 185.297 15.9325 185.488C15.5031 185.86 14.929 186.53 14.3175 187.485C13.7024 188.434 13.0493 189.657 12.3742 191.033C11.6965 192.405 11.002 193.946 10.2354 195.441C9.71371 196.451 9.18446 197.376 8.62591 198.042C8.06816 198.718 7.49166 199.069 6.91899 199.037C6.3425 199.012 5.78431 198.628 5.3237 198.204C5.21066 198.093 5.09229 197.987 5.00145 197.877L4.85892 197.715L4.73087 197.537C4.56304 197.304 4.42842 197.052 4.31396 196.815C4.18147 196.266 4.0718 195.57 4.05413 194.759C4.03335 193.953 4.08636 193.037 4.25881 192.095C4.34584 191.626 4.45826 191.151 4.60496 190.692C4.75521 190.236 4.93867 189.797 5.15889 189.416C5.37814 189.035 5.63415 188.717 5.91582 188.506C6.19785 188.295 6.50483 188.188 6.83819 188.199L7.02405 188.22L7.11702 188.229L7.21106 188.257L7.3994 188.31L7.58846 188.394C7.71189 188.443 7.8458 188.518 7.96692 188.593C8.09035 188.667 8.20446 188.75 8.30996 188.838C8.52192 189.012 8.69046 189.215 8.79489 189.417C8.90101 189.621 8.95376 189.82 8.95997 190.069C8.97835 190.571 8.76124 191.207 8.48196 191.682C8.201 192.167 7.85415 192.547 7.52949 192.733C7.36752 192.824 7.21239 192.864 7.08896 192.84C6.96819 192.822 6.85932 192.733 6.78331 192.588C6.70321 192.441 6.65082 192.244 6.61929 192.051C6.58493 191.858 6.57143 191.667 6.56344 191.493C6.54745 191.144 6.56131 190.864 6.56797 190.675C6.57836 190.485 6.58386 190.384 6.58386 190.384Z" fill="#9A9A9A"/>
<path d="M6.14991 10.8519L8.63978 10.0092L8.73648 10.011L11.0866 10.8884C11.2645 10.9541 11.4095 10.669 11.318 10.4319L10.3155 7.82298C9.97107 6.9261 9.71266 5.96082 9.54749 4.95649L8.91239 1.08038C8.8624 0.774021 8.5738 0.760705 8.51102 1.06174L7.56929 5.57632C7.44826 6.1544 7.28868 6.71296 7.09199 7.24309L5.92161 10.3982C5.83458 10.6326 5.97435 10.9105 6.14991 10.8519Z" fill="#9A9A9A"/>
<path d="M8.12833 90.7101C7.57333 91.591 6.85352 93.399 6.85352 94.4708C6.85352 95.9262 7.64481 97.1055 8.6209 97.1055C9.59699 97.1055 10.3878 95.9262 10.3878 94.4708C10.3878 93.3421 9.7198 91.3965 9.11347 90.5787V16.5985H8.6209H8.12833V90.7101Z" fill="#9A9A9A"/>
<path d="M7.35498 14.7116C7.35498 15.7541 7.92179 16.5986 8.62109 16.5986C9.32004 16.5986 9.88685 15.7541 9.88685 14.7116C9.88685 13.6691 9.32004 12.8238 8.62109 12.8238C7.92179 12.8238 7.35498 13.6691 7.35498 14.7116Z" fill="#9A9A9A"/>
<path d="M5.667 300.3C5.667 300.3 5.57784 300.166 5.40895 299.911C5.24138 299.652 4.98058 299.284 4.69473 298.746C4.0995 297.7 3.31593 296.049 2.63741 293.774C2.55412 293.491 2.46434 293.201 2.38104 292.9C2.30441 292.595 2.22635 292.284 2.14661 291.966C2.10701 291.807 2.06714 291.646 2.02726 291.483C1.99219 291.318 1.9572 291.152 1.92177 290.983C1.85206 290.647 1.77685 290.305 1.70883 289.953C1.44935 288.542 1.23117 287.011 1.074 285.385C0.926945 283.756 0.835391 282.036 0.810438 280.252C0.787883 278.469 0.8385 276.624 0.9495 274.745C1.26137 269.634 2.01439 264.957 2.86634 261.084C3.29302 259.147 3.74705 257.407 4.18937 255.901C4.63017 254.392 5.0676 253.124 5.42457 252.106C5.94175 249.933 6.74752 246.798 7.70389 243.037C8.1732 241.152 8.68726 239.115 9.17637 236.942C9.6654 234.77 10.1434 232.47 10.5569 230.068C11.1546 226.532 11.5385 223.108 11.6992 219.959C11.8979 216.88 11.5351 214.077 11.1636 211.737C10.9749 210.567 10.7744 209.512 10.5961 208.583C10.4178 207.654 10.2617 206.853 10.1424 206.192C10.022 205.533 9.93846 205.016 9.8874 204.664C9.8382 204.312 9.81218 204.127 9.81218 204.127C9.81218 204.127 9.85791 204.303 9.94574 204.638C10.0331 204.972 10.1687 205.459 10.3508 206.083C10.534 206.708 10.7581 207.472 11.0179 208.359C11.2749 209.25 11.5622 210.273 11.8414 211.434C12.1199 212.593 12.3947 213.892 12.5993 215.334C12.6489 215.694 12.7024 216.061 12.7366 216.442C12.7766 216.819 12.8175 217.205 12.8369 217.602C12.8494 217.799 12.8619 217.999 12.8744 218.199C12.8844 218.401 12.8855 218.605 12.8911 218.81C12.8949 219.016 12.899 219.223 12.9031 219.431C12.8993 219.633 12.8959 219.837 12.8924 220.041C12.8616 223.32 12.549 226.925 11.9288 230.588C11.5007 233.074 10.969 235.424 10.405 237.607C9.8406 239.792 9.23152 241.801 8.65849 243.638C7.49539 247.301 6.44675 250.263 5.73848 252.31C5.47626 253.396 5.15436 254.716 4.83281 256.259C4.50985 257.803 4.17791 259.567 3.86294 261.509C3.23335 265.392 2.66103 269.99 2.35955 274.935C2.25131 276.752 2.18089 278.531 2.16499 280.248C2.15141 281.965 2.18506 283.618 2.26107 285.19C2.34739 286.76 2.4813 288.242 2.6502 289.621C2.69602 289.964 2.74806 290.298 2.7945 290.629C2.81812 290.794 2.84174 290.959 2.86492 291.121C2.89342 291.281 2.92077 291.44 2.94892 291.597C3.00477 291.911 3.05885 292.219 3.11267 292.521C3.1719 292.821 3.23788 293.109 3.29782 293.394C3.78622 295.669 4.39432 297.408 4.87375 298.553C5.10161 299.141 5.31775 299.558 5.45477 299.852C5.59418 300.146 5.667 300.3 5.667 300.3Z" fill="#9A9A9A"/>
<path d="M4.78866 299.725C4.78866 299.725 4.73689 299.554 4.6377 299.23C4.54162 298.904 4.38906 298.428 4.21492 297.799C3.88574 296.535 3.42993 294.671 3.11283 292.258C2.79377 289.851 2.63384 286.898 2.78267 283.638C2.87422 282.013 3.01675 280.31 3.25615 278.575C3.49689 276.842 3.80138 275.066 4.18056 273.284C4.69285 270.862 5.29021 268.579 5.89582 266.451C6.50321 264.324 7.11931 262.348 7.69651 260.538C8.85712 256.922 9.84431 253.953 10.4989 251.888C10.7316 250.802 11.0071 249.464 11.313 247.921C11.6145 246.37 11.9207 244.63 12.2565 242.679C12.5975 240.74 12.9794 238.652 13.345 236.444C13.7099 234.235 14.0572 231.905 14.2982 229.487C14.6568 225.935 14.7127 222.517 14.3311 219.512C14.3072 219.323 14.2829 219.138 14.2583 218.952C14.2295 218.769 14.2004 218.587 14.1713 218.406C14.1192 218.042 14.0412 217.694 13.978 217.344C13.9038 217.004 13.8275 216.653 13.7495 216.338C13.6738 216.029 13.5757 215.729 13.4754 215.435C13.0578 214.26 12.518 213.219 12.039 212.248C11.5555 211.277 11.1197 210.369 10.7947 209.512C10.4663 208.659 10.2533 207.858 10.1451 207.184C10.033 206.51 10.0205 205.971 10.0303 205.613C10.0292 205.434 10.0452 205.298 10.0494 205.207C10.0552 205.116 10.0583 205.069 10.0583 205.069C10.0583 205.069 10.0605 205.116 10.0649 205.208C10.0719 205.298 10.0708 205.434 10.0906 205.609C10.1194 205.958 10.187 206.472 10.3556 207.083C10.5207 207.696 10.7889 208.4 11.1697 209.146C11.5471 209.896 12.0331 210.689 12.5843 211.575C13.1303 212.465 13.756 213.436 14.3107 214.707C14.4457 215.028 14.5802 215.364 14.6943 215.731C14.8067 216.091 14.9032 216.441 15.0044 216.809C15.0929 217.181 15.1952 217.552 15.2708 217.942C15.3115 218.136 15.3517 218.331 15.3923 218.528C15.4269 218.726 15.4627 218.926 15.4977 219.127C15.5723 219.53 15.6212 219.944 15.6815 220.361C15.7273 220.781 15.7835 221.204 15.8147 221.636C15.8938 222.498 15.9313 223.382 15.9479 224.281C15.976 226.079 15.8824 227.932 15.6989 229.797C15.4456 232.333 15.0447 234.726 14.6066 236.952C14.1675 239.178 13.6909 241.241 13.2478 243.131C13.0266 244.074 12.8146 244.976 12.5978 245.841C12.5444 246.057 12.4921 246.269 12.44 246.478C12.3848 246.685 12.3304 246.89 12.2766 247.092C12.168 247.493 12.0629 247.884 11.9613 248.261C11.5377 249.76 11.149 251.043 10.8173 252.075C10.357 254.26 9.60979 257.408 8.64898 261.145C7.70033 264.888 6.53065 269.218 5.53023 273.92C5.16224 275.65 4.84825 277.352 4.57945 279.007C4.31163 280.662 4.12328 282.275 3.97072 283.82C3.70015 286.913 3.67724 289.742 3.81426 292.112C3.94781 294.484 4.22531 296.385 4.42511 297.698C4.65919 299.003 4.78866 299.725 4.78866 299.725Z" fill="#9A9A9A"/>
<path d="M5.66702 300.3C5.66702 300.3 5.59421 300.147 5.45541 299.854C5.385 299.707 5.30037 299.524 5.20882 299.3C5.11344 299.078 5.00342 298.821 4.89349 298.519C4.6635 297.924 4.41104 297.167 4.17891 296.243C3.9483 295.32 3.73944 294.226 3.62391 292.982C3.50874 291.74 3.48068 290.351 3.57401 288.881C3.66281 287.41 3.86882 285.864 4.15432 284.281C4.44256 282.698 4.80744 281.077 5.20953 279.429C5.41279 278.609 5.61987 277.775 5.82935 276.929C6.05588 276.088 6.28516 275.236 6.51755 274.372C6.8367 273.201 7.15549 272.052 7.47144 270.93C7.79165 269.81 8.08922 268.703 8.42711 267.66C9.08378 265.561 9.71781 263.587 10.3117 261.774C10.6058 260.866 10.8975 260.005 11.1788 259.19C11.4605 258.377 11.7276 257.605 11.9784 256.882C12.4824 255.439 12.9264 254.194 13.2917 253.181C13.8262 251.024 14.6102 247.891 15.6064 244.156C16.0844 242.304 16.543 240.267 16.9093 238.081C17.2734 235.895 17.534 233.556 17.5978 231.138C17.6419 229.362 17.5929 227.624 17.3959 225.983L17.3661 225.674C17.354 225.571 17.3366 225.47 17.3227 225.37C17.2929 225.168 17.2638 224.968 17.2343 224.767C17.2055 224.567 17.1767 224.367 17.1479 224.169C17.1142 223.973 17.0723 223.781 17.0356 223.589C16.9554 223.206 16.894 222.818 16.8034 222.448C16.7108 222.08 16.6196 221.715 16.5294 221.355L16.4618 221.085L16.3807 220.826C16.3272 220.654 16.2737 220.482 16.2211 220.312C16.1149 219.978 16.0146 219.61 15.9065 219.334C15.6796 218.745 15.392 218.182 15.0971 217.648C14.5019 216.581 13.8848 215.61 13.3489 214.679C12.8099 213.752 12.3468 212.858 12.0002 212.01C11.8282 211.584 11.6874 211.169 11.5753 210.775C11.4706 210.375 11.3891 210.003 11.3464 209.656C11.2521 208.966 11.286 208.414 11.3357 208.061C11.352 207.882 11.3888 207.752 11.4026 207.663C11.4199 207.575 11.4286 207.53 11.4286 207.53C11.4286 207.53 11.4252 207.577 11.4182 207.669C11.4144 207.76 11.3926 207.892 11.3964 208.071C11.3853 208.423 11.4095 208.95 11.5604 209.571C11.6305 209.881 11.7398 210.211 11.8699 210.559C12.0079 210.903 12.1734 211.261 12.3683 211.629C12.7627 212.362 13.2685 213.131 13.8592 213.949C14.4482 214.772 15.1218 215.638 15.8155 216.681C16.16 217.207 16.511 217.78 16.8287 218.477C16.9952 218.843 17.1042 219.182 17.2405 219.542C17.3054 219.721 17.3713 219.901 17.4372 220.081L17.5364 220.355L17.6224 220.639C17.7358 221.021 17.851 221.409 17.9672 221.8C18.0799 222.195 18.1632 222.611 18.2635 223.024C18.3099 223.232 18.3623 223.439 18.4053 223.651C18.4428 223.865 18.4806 224.081 18.5188 224.297C18.5565 224.514 18.594 224.731 18.6322 224.951C18.6506 225.061 18.6713 225.17 18.6873 225.281L18.7279 225.617C18.9828 227.403 19.0602 229.301 19.012 231.222C18.9433 233.836 18.62 236.323 18.1702 238.592C17.7175 240.864 17.15 242.929 16.5572 244.77C15.3597 248.39 14.3299 251.364 13.6039 253.391C13.3344 254.468 12.999 255.788 12.6045 257.304C12.2049 258.817 11.7522 260.531 11.2576 262.404C10.7647 264.276 10.2194 266.3 9.62839 268.428C9.32239 269.488 9.05323 270.599 8.75282 271.721C8.45623 272.845 8.1496 273.99 7.8333 275.15C7.59807 276.003 7.36568 276.846 7.1364 277.676C6.91262 278.512 6.6924 279.337 6.47564 280.148C6.04131 281.761 5.63586 283.308 5.29691 284.797C4.96186 286.284 4.69582 287.715 4.53314 289.073C4.36664 290.432 4.30696 291.717 4.32881 292.892C4.37942 295.245 4.76482 297.128 5.09329 298.379C5.1717 298.695 5.25286 298.969 5.32363 299.208C5.3913 299.449 5.45444 299.648 5.50816 299.807C5.61223 300.131 5.66702 300.3 5.66702 300.3Z" fill="#9A9A9A"/>
<path d="M4.50328 296.077C4.50328 296.077 4.5515 296.302 4.62431 296.689C4.66143 296.881 4.72874 297.109 4.78841 297.367C4.87127 297.616 4.94692 297.901 5.07071 298.171C5.30283 298.719 5.63548 299.253 6.08676 299.543C6.19252 299.631 6.3188 299.677 6.43637 299.742L6.62684 299.809L6.82558 299.858C7.09473 299.908 7.38297 299.931 7.68614 299.879C8.51038 299.771 9.2943 299.337 9.91519 298.807C10.2322 298.548 10.4942 298.239 10.7282 297.952C10.9534 297.655 11.1428 297.365 11.2829 297.107C11.3856 296.458 11.4442 295.517 11.3245 294.479C11.2507 293.931 11.1848 293.335 11.0543 292.785C10.9908 292.51 10.9194 292.243 10.8347 292.003C10.7963 291.878 10.7421 291.784 10.7009 291.667L10.6249 291.527L10.5888 291.455L10.5479 291.398C10.3921 291.162 10.234 291.028 10.0349 290.956C9.83572 290.887 9.59711 290.908 9.36508 290.993C8.89675 291.166 8.4753 291.585 8.2478 292.032C8.12987 292.256 8.06425 292.491 8.04551 292.716L8.03619 292.803L8.03823 292.883L8.0424 293.048C8.06114 293.146 8.06913 293.252 8.09373 293.337C8.11975 293.425 8.14337 293.503 8.16317 293.572L8.23421 293.734C8.27417 293.826 8.2953 293.874 8.2953 293.874L8.19434 293.803L8.06913 293.707L7.91338 293.528C7.85441 293.456 7.80442 293.352 7.74137 293.241L7.66642 293.041L7.62788 292.93L7.60187 292.808C7.52452 292.472 7.51653 292.035 7.59947 291.608C7.76357 290.748 8.2113 289.881 8.9217 289.339C9.27726 289.077 9.71362 288.89 10.2038 288.95C10.4462 288.991 10.7005 289.075 10.934 289.25L11.1088 289.382L11.2694 289.547C11.3804 289.656 11.471 289.789 11.5618 289.925L11.653 290.064L11.7294 290.212C11.7796 290.312 11.8296 290.411 11.8764 290.512C11.951 290.717 12.0377 290.922 12.0908 291.126C12.208 291.538 12.2775 291.941 12.325 292.328C12.3416 292.521 12.359 292.71 12.3756 292.898C12.3805 293.081 12.3849 293.261 12.3894 293.438C12.3954 293.616 12.3887 293.787 12.3818 293.953C12.3745 294.12 12.3676 294.283 12.3603 294.443C12.3464 294.608 12.3284 294.772 12.3108 294.93L12.2844 295.162L12.2434 295.385C12.2147 295.53 12.1872 295.67 12.1598 295.807C12.1259 295.94 12.0884 296.067 12.0537 296.189C11.9139 296.675 11.7411 297.05 11.5906 297.332C11.5358 297.686 11.4339 298.11 11.2718 298.579C11.1015 299.035 10.8789 299.551 10.5608 300.016C9.9405 300.954 8.98555 301.821 7.81277 301.982C7.38546 302.049 6.95043 301.986 6.5439 301.834C6.44267 301.788 6.34135 301.758 6.24385 301.697C6.14777 301.636 6.0524 301.578 5.958 301.52C5.77596 301.373 5.5973 301.236 5.44394 301.045C5.28268 300.876 5.15125 300.663 5.02498 300.464C4.96282 300.362 4.91327 300.247 4.86052 300.142C4.80919 300.034 4.75645 299.931 4.72039 299.816C4.64198 299.591 4.56393 299.381 4.5213 299.161C4.49733 299.054 4.47415 298.949 4.45124 298.846C4.43073 298.744 4.42176 298.639 4.40782 298.541C4.34752 298.146 4.35267 297.786 4.34717 297.481C4.3659 297.174 4.37487 296.917 4.40338 296.709C4.46234 296.294 4.50328 296.077 4.50328 296.077Z" fill="#9A9A9A"/>
<path d="M6.58386 212.954C6.58386 212.954 6.55784 212.86 6.509 212.684C6.46389 212.503 6.39481 212.238 6.3425 211.87C6.31746 211.686 6.29358 211.477 6.29251 211.235C6.29144 210.996 6.30636 210.718 6.39454 210.419C6.47952 210.117 6.66822 209.819 6.92139 209.677C7.17083 209.53 7.43856 209.523 7.69457 209.579C8.20624 209.703 8.69775 210.061 9.15116 210.614C9.37591 210.893 9.59134 211.226 9.77409 211.641C9.95622 212.052 10.1092 212.559 10.1522 213.161C10.173 213.461 10.1633 213.781 10.1144 214.095C10.0651 214.408 9.97771 214.71 9.86635 214.978C9.75571 215.247 9.62109 215.486 9.47617 215.688C9.33222 215.895 9.17744 216.069 9.01858 216.221C8.86043 216.374 8.69739 216.509 8.53267 216.624C8.36617 216.741 8.20482 216.842 8.02136 216.928C7.9322 216.973 7.84234 217.018 7.75078 217.059C7.65612 217.089 7.56004 217.12 7.46423 217.151L7.31993 217.195L7.16906 217.217C7.06844 217.228 6.96819 217.248 6.86554 217.251C6.30574 217.272 5.73165 217.054 5.25879 216.652C4.78256 216.253 4.40826 215.7 4.12695 215.118C3.56227 213.942 3.33059 212.67 3.23966 211.523C3.15192 210.369 3.22403 209.313 3.37499 208.423C3.5231 207.53 3.76828 206.809 4.01044 206.286C4.08707 205.988 4.18768 205.658 4.3358 205.322C4.37363 205.239 4.41208 205.153 4.45169 205.065C4.4936 204.981 4.54288 204.901 4.59039 204.816C4.68612 204.638 4.79126 204.492 4.89915 204.328C5.12248 204.015 5.3792 203.695 5.69 203.413C5.99938 203.132 6.36852 202.89 6.79059 202.769C7.21106 202.642 7.68276 202.671 8.13236 202.844C8.58293 203.02 9.00819 203.332 9.39154 203.717C10.1615 204.492 10.7908 205.518 11.3576 206.611C12.187 208.23 12.8134 209.867 13.3771 211.337C13.9369 212.812 14.4229 214.135 14.8746 215.202C15.322 216.272 15.7379 217.082 16.0699 217.592C16.233 217.851 16.3734 218.033 16.4705 218.156C16.5697 218.275 16.6221 218.338 16.6221 218.338C16.6221 218.338 16.5589 218.303 16.439 218.234C16.3203 218.159 16.1448 218.041 15.9325 217.85C15.5031 217.479 14.929 216.808 14.3175 215.854C13.7024 214.904 13.0493 213.682 12.3742 212.305C11.6965 210.933 11.002 209.393 10.2354 207.897C9.71371 206.887 9.18446 205.962 8.62591 205.296C8.06816 204.62 7.49166 204.27 6.91899 204.302C6.3425 204.327 5.78431 204.711 5.3237 205.134C5.21066 205.246 5.09229 205.35 5.00145 205.461L4.85892 205.624L4.73087 205.802C4.56304 206.035 4.42842 206.286 4.31396 206.524C4.18147 207.072 4.0718 207.769 4.05413 208.578C4.03335 209.386 4.08636 210.302 4.25881 211.243C4.34584 211.713 4.45826 212.188 4.60496 212.647C4.75521 213.103 4.93867 213.541 5.15889 213.922C5.37814 214.303 5.63415 214.621 5.91582 214.832C6.19785 215.043 6.50483 215.15 6.83819 215.14L7.02405 215.118L7.11702 215.109L7.21106 215.08L7.3994 215.028L7.58846 214.944C7.71189 214.896 7.8458 214.821 7.96692 214.746C8.09035 214.672 8.20446 214.588 8.30996 214.5C8.52192 214.326 8.69046 214.124 8.79489 213.921C8.90101 213.718 8.95376 213.518 8.95997 213.27C8.97835 212.767 8.76124 212.131 8.48196 211.655C8.201 211.171 7.85415 210.791 7.52949 210.606C7.36752 210.515 7.21239 210.474 7.08896 210.498C6.96819 210.517 6.85932 210.605 6.78331 210.75C6.70321 210.898 6.65082 211.095 6.61929 211.288C6.58493 211.48 6.57143 211.671 6.56344 211.845C6.54745 212.194 6.56131 212.475 6.56797 212.664C6.57836 212.853 6.58386 212.954 6.58386 212.954Z" fill="#9A9A9A"/>
<path d="M6.14991 392.488L8.63978 393.329L8.73648 393.328L11.0866 392.451C11.2645 392.384 11.4095 392.669 11.318 392.907L10.3155 395.516C9.97107 396.413 9.71266 397.378 9.54749 398.383L8.91239 402.258C8.8624 402.564 8.5738 402.578 8.51102 402.277L7.56929 397.763C7.44826 397.185 7.28868 396.626 7.09199 396.096L5.92161 392.941C5.83458 392.707 5.97435 392.428 6.14991 392.488Z" fill="#9A9A9A"/>
<path d="M8.12833 312.629C7.57333 311.747 6.85352 309.939 6.85352 308.867C6.85352 307.413 7.64481 306.234 8.6209 306.234C9.59699 306.234 10.3878 307.413 10.3878 308.867C10.3878 309.997 9.7198 311.943 9.11347 312.76V386.74H8.6209H8.12833V312.629Z" fill="#9A9A9A"/>
<path d="M7.35498 388.628C7.35498 387.585 7.92179 386.74 8.62109 386.74C9.32004 386.74 9.88685 387.585 9.88685 388.628C9.88685 389.67 9.32004 390.515 8.62109 390.515C7.92179 390.515 7.35498 389.67 7.35498 388.628Z" fill="#9A9A9A"/>
</svg>
