<svg width="184" height="25" viewBox="0 0 184 25" fill="none" xmlns="http://www.w3.org/2000/svg">
<path d="M13.1244 0.0429688C14.9175 0.0429688 16.5765 0.3363 18.1016 0.922964C19.637 1.49933 20.9972 2.30214 22.1823 3.33137L21.3167 4.47382C20.8427 4.07242 20.3171 3.69675 19.7401 3.34681C19.163 2.99687 18.555 2.69839 17.9161 2.45138C17.2772 2.19407 16.6126 1.99337 15.9222 1.84927C15.2317 1.69489 14.5362 1.6177 13.8355 1.6177C12.331 1.6177 10.9965 1.89044 9.83209 2.43594C8.66766 2.98143 7.68871 3.72763 6.89525 4.67452C6.10179 5.62142 5.49896 6.72784 5.08678 7.9938C4.67459 9.25976 4.4685 10.6183 4.4685 12.0696C4.4685 13.4899 4.66944 14.8279 5.07132 16.0836C5.48351 17.3392 6.08118 18.4405 6.86434 19.3874C7.6578 20.3343 8.63674 21.0857 9.80118 21.6414C10.9656 22.1869 12.3001 22.4597 13.8045 22.4597C14.5259 22.4597 15.2575 22.3876 15.9994 22.2435C16.7414 22.0994 17.4576 21.8885 18.148 21.6106C18.8384 21.3327 19.4876 20.993 20.0956 20.5916C20.7138 20.1902 21.26 19.7322 21.734 19.2176L22.6151 20.3446C21.3991 21.4973 19.9874 22.3979 18.3798 23.0463C16.7723 23.6948 15.0205 24.019 13.1244 24.019C11.9806 24.019 10.8832 23.8749 9.83209 23.5867C8.78101 23.3088 7.79691 22.9074 6.87979 22.3825C5.97298 21.8576 5.14345 21.2349 4.39121 20.5144C3.64927 19.7837 3.01038 18.9757 2.47454 18.0906C1.949 17.2054 1.53681 16.2585 1.23797 15.2499C0.949442 14.231 0.805176 13.1708 0.805176 12.0696C0.805176 10.9683 0.949442 9.90303 1.23797 8.87379C1.53681 7.84456 1.949 6.88737 2.47454 6.00223C3.01038 5.1068 3.64927 4.2937 4.39121 3.56295C5.14345 2.83219 5.97298 2.20951 6.87979 1.69489C7.79691 1.16998 8.78101 0.763432 9.83209 0.475247C10.8832 0.187061 11.9806 0.0429688 13.1244 0.0429688Z" fill="white"/>
<path d="M68.0891 0.0429688C68.7692 0.0429688 69.3617 0.0738458 69.8666 0.1356C70.3819 0.197354 70.861 0.284839 71.3041 0.398054C71.7575 0.500978 72.2058 0.624486 72.6489 0.768579C73.092 0.912671 73.5866 1.0722 74.1328 1.24717L74.0709 2.86822C73.6794 2.73442 73.2826 2.60576 72.8808 2.48225C72.4789 2.35874 72.0564 2.25068 71.6133 2.15804C71.1805 2.06541 70.7168 1.99337 70.2221 1.94191C69.7275 1.88015 69.1968 1.84927 68.6301 1.84927C68.3725 1.84927 68.0736 1.89044 67.7336 1.97278C67.3935 2.05512 67.0689 2.19407 66.7598 2.38962C66.4506 2.58518 66.1879 2.84248 65.9715 3.16155C65.7551 3.48061 65.6469 3.87686 65.6469 4.35031C65.6469 4.79288 65.822 5.31265 66.1724 5.9096C66.5228 6.49626 67.1101 7.23217 67.9345 8.11731L70.6549 11.0506C71.2526 11.6682 71.8245 12.2806 72.3707 12.8878C72.9271 13.4848 73.4114 14.0766 73.8236 14.6632C74.2358 15.2396 74.5656 15.816 74.8129 16.3923C75.0602 16.9584 75.1839 17.5194 75.1839 18.0751C75.1839 19.1558 74.9829 20.077 74.581 20.8386C74.1894 21.59 73.6742 22.2024 73.0353 22.6758C72.4067 23.139 71.6906 23.4786 70.8868 23.6948C70.083 23.9109 69.2793 24.019 68.4755 24.019C67.7748 24.019 67.1204 23.9778 66.5125 23.8955C65.9045 23.8234 65.3223 23.7102 64.7658 23.5558C64.2197 23.4117 63.6941 23.2316 63.1892 23.0155C62.6843 22.789 62.1845 22.5317 61.6899 22.2435L61.8908 20.5762C62.2927 20.7614 62.7049 20.9519 63.1274 21.1474C63.5499 21.3327 63.9775 21.5025 64.4103 21.6569C64.8534 21.801 65.3017 21.9193 65.7551 22.012C66.2085 22.1046 66.6619 22.1509 67.1153 22.1509C68.6301 22.1509 69.7739 21.8421 70.5467 21.2246C71.3196 20.5968 71.706 19.691 71.706 18.5074C71.706 18.1472 71.6236 17.7818 71.4587 17.4113C71.3041 17.0408 71.0877 16.6599 70.8095 16.2688C70.5313 15.8674 70.2015 15.4557 69.8203 15.0338C69.4493 14.6118 69.0526 14.1692 68.6301 13.706L65.8787 10.711C65.178 9.85671 64.5906 9.12596 64.1166 8.51871C63.6426 7.91146 63.2613 7.37111 62.9728 6.89767C62.6946 6.42422 62.4936 5.99194 62.37 5.60083C62.2566 5.19943 62.1999 4.78259 62.1999 4.35031C62.1999 3.51663 62.37 2.82705 62.71 2.28155C63.0501 1.72577 63.4983 1.2832 64.0548 0.953841C64.6112 0.624486 65.2398 0.392908 65.9405 0.259108C66.6413 0.115015 67.3574 0.0429688 68.0891 0.0429688Z" fill="white"/>
<path d="M132.575 12.0387C132.575 10.6389 132.416 9.41929 132.096 8.37976C131.777 7.34024 131.344 6.44995 130.798 5.7089C130.252 4.96785 129.613 4.3606 128.881 3.88716C128.149 3.40342 127.377 3.02775 126.562 2.76015C125.748 2.48225 124.909 2.29184 124.043 2.18892C123.188 2.086 122.353 2.03454 121.539 2.03454H116.222V3.71733H118.022H119.607V21.9656H121.539C122.353 21.9656 123.188 21.9142 124.043 21.8113C124.909 21.7083 125.748 21.5231 126.562 21.2555C127.377 20.9776 128.149 20.6019 128.881 20.1285C129.613 19.655 130.252 19.0529 130.798 18.3222C131.344 17.5811 131.777 16.696 132.096 15.6667C132.416 14.6375 132.575 13.4282 132.575 12.0387ZM136.161 11.9769C136.161 13.5825 135.873 15.0852 135.296 16.485C134.729 17.8744 133.884 19.0889 132.761 20.1285C131.638 21.168 130.241 21.9862 128.572 22.5832C126.913 23.1801 124.991 23.4786 122.806 23.4786H116.222V3.71733V0.521562H122.806C124.991 0.521562 126.913 0.82004 128.572 1.417C130.241 2.01395 131.638 2.83219 132.761 3.87172C133.884 4.90095 134.729 6.11545 135.296 7.51521C135.873 8.90467 136.161 10.3919 136.161 11.9769Z" fill="white"/>
<path d="M152.12 23.4786H148.72V0.521562H152.12V23.4786Z" fill="white"/>
<path d="M183.289 23.4786H180.692L167.956 5.64715V23.4786H166.379V3.43944L164.323 0.521562H168.466L181.697 19.0786V0.521562H183.289V23.4786Z" fill="white"/>
<path d="M48.6985 23.4786H52.2691L42.5621 0.521562H38.9451L40.1817 3.47032L31.7576 23.4786H33.6279L35.4982 18.986L36.4321 16.7598L36.9036 15.6358L37.4662 14.2946L41.0937 5.64715L44.7912 14.2946L45.3648 15.6358L45.8454 16.7598L46.7973 18.986L48.6985 23.4786Z" fill="white"/>
<path d="M45.3648 15.6358H36.9036L36.4321 16.7598H45.8454L45.3648 15.6358Z" fill="white"/>
<path d="M102.185 23.4786H105.755L96.0484 0.521562H92.4314L93.668 3.47032L85.2439 23.4786H87.1142L88.9845 18.986L89.9184 16.7598L90.3899 15.6358L90.9525 14.2946L94.58 5.64715L98.2776 14.2946L98.8511 15.6358L99.3317 16.7598L100.284 18.986L102.185 23.4786Z" fill="white"/>
<path d="M98.8511 15.6358H90.3899L89.9184 16.7598H99.3317L98.8511 15.6358Z" fill="white"/>
</svg>
