<svg width="38" height="53" viewBox="0 0 38 53" fill="none" xmlns="http://www.w3.org/2000/svg">
<path d="M27.3942 30.7589L26.1866 28.6646C22.7516 30.6446 21.3592 34.6575 20.8315 38.2505C15.3087 28.7853 9.17472 29.0852 8.8335 29.112L9.0191 31.5232C9.10826 31.5159 18.0425 31.0831 23.4325 51.3889L23.4414 51.3865C23.5366 51.684 23.7437 51.9329 24.0189 52.0806C24.2941 52.2283 24.616 52.2633 24.9165 52.1782C25.2171 52.0932 25.4728 51.8946 25.6298 51.6246C25.7868 51.3545 25.8327 51.034 25.7578 50.7308C25.7382 50.6628 25.7127 50.5966 25.6816 50.533C25.6824 50.5306 25.6922 50.5322 25.7011 50.5225C24.863 47.4166 23.9334 44.7743 22.9551 42.5024C22.9478 39.7183 23.3733 33.0762 27.3942 30.7589Z" fill="#78B153"/>
<path d="M24.8575 50.9962L24.851 51.0018C19.4619 30.6904 10.526 31.128 10.436 31.1329L10.291 29.2339C9.45694 29.0775 8.92362 29.1018 8.83203 29.1099L9.01764 31.5211C9.1068 31.5139 18.0411 31.081 23.431 51.3868L23.4399 51.3844C23.5024 51.5983 23.6233 51.7906 23.789 51.9397C23.9547 52.0888 24.1586 52.1887 24.378 52.2284C24.5973 52.268 24.8233 52.2458 25.0307 52.1641C25.2381 52.0825 25.4187 51.9447 25.5521 51.7661C25.2279 51.6284 24.9645 51.3568 24.8575 50.9962Z" fill="#5C8E3F"/>
<path d="M24.4931 30.8487C24.4931 30.8487 22.9069 29.3169 24.3877 27.6067C25.8677 25.8933 30.6311 25.1306 32.4564 25.4061L32.5569 25.7692C32.5569 25.7692 31.7617 26.0643 31.8136 28.4058C31.8663 30.7458 27.047 31.2856 27.047 31.2856L25.764 31.7581L24.4874 32.1066L24.4931 30.852M12.6118 30.7239C12.6118 30.7239 13.3834 27.939 10.5725 26.9915C7.76408 26.0408 1.88462 28.3459 0.00341797 29.8729L0.135532 30.3478C0.135532 30.3478 1.22729 30.1533 2.72512 32.8296C4.22133 35.5067 10.0197 32.9123 10.0197 32.9123L11.7834 32.5913L13.4523 32.1342L12.6118 30.7239Z" fill="#78B153"/>
<path d="M12.6499 29.2277C10.9145 30.2716 8.24147 31.4639 6.802 29.9595C4.5585 27.6172 3.49187 28.1075 3.49187 28.1075L3.44891 28.0346C1.98431 28.6141 0.712617 29.2998 0.00341797 29.8736L0.135532 30.3494C0.135532 30.3494 1.22729 30.1533 2.72512 32.8296C4.22295 35.5075 10.0197 32.9131 10.0197 32.9131L11.7834 32.5921L13.4514 32.1342L12.6126 30.7239C12.6126 30.7239 12.8022 30.0349 12.6499 29.2277ZM21.234 41.6188C21.234 41.6188 22.4036 32.0644 25.4333 30.3535C25.4333 30.3535 31.2398 29.47 31.8485 27.4389C31.8485 27.4389 32.03 25.8235 32.8365 25.6841C32.8365 25.6841 28.9695 24.1692 25.2412 27.0725C25.2412 27.0725 22.9523 27.9098 24.1097 30.3389C24.1097 30.3389 22.1353 32.0458 20.8279 38.2503L20.2217 40.4071L21.234 41.6163" fill="#5C8E3F"/>
<path d="M20.5882 21.3233C20.5882 21.3233 18.9445 20.6619 18.5862 18.5286C18.228 16.3937 16.692 16.8736 16.692 16.8736L13.5983 20.8491C13.7961 18.5286 13.9104 15.3498 13.1388 14.6536C11.8914 13.531 10.2331 15.4463 10.2331 15.4463C10.2331 15.4463 9.00271 16.7228 6.8897 16.2543C4.77669 15.7859 4.64296 17.3874 4.64296 17.3874L7.55108 22.4037C5.47293 21.5129 2.84605 20.563 2.00312 21.0315C0.536091 21.842 1.8086 24.0377 1.8086 24.0377C1.8086 24.0377 2.61749 25.6141 1.48925 27.4605C0.361021 29.3068 1.83453 29.9528 1.83453 29.9528L6.56307 29.0191C5.30515 30.893 3.89486 33.2832 4.19718 34.1967C4.72563 35.7885 7.11584 34.944 7.11584 34.944C7.11584 34.944 8.81386 34.4439 10.4211 35.8939C12.0243 37.3455 12.9329 36.0171 12.9329 36.0171L12.8802 29.413C13.9314 31.2772 16.3403 35.3087 17.6225 35.4473C19.2897 35.6288 19.5134 33.1049 19.5134 33.1049C19.5134 33.1049 19.7663 31.3501 21.7537 30.4926C23.7411 29.6392 22.9103 28.2597 22.9103 28.2597L18.0472 26.0802C20.0233 25.4107 22.1241 24.5272 22.4159 23.7167C22.9897 22.1427 20.5914 21.3233 20.5914 21.3233" fill="#F2ABB9"/>
<path d="M12.8795 29.615C12.8795 29.615 17.5262 33.6919 20.56 31.2717C20.56 31.2717 19.3863 32.4372 19.5128 33.1099C19.5128 33.1099 19.2307 35.154 18.1795 35.4045C18.1795 35.4045 17.4111 35.6582 16.7214 34.9344C16.0316 34.2122 14.024 31.4548 12.8795 29.615ZM9.87903 34.3484C9.87903 34.3484 7.48964 35.1937 6.96037 33.6019C6.65967 32.6876 8.06834 30.2982 9.32545 28.4251L4.59773 29.3572C4.59773 29.3572 3.12259 28.7104 4.25164 26.8649C5.38068 25.0194 4.5726 23.4405 4.5726 23.4405C4.5726 23.4405 3.81883 22.138 4.14708 21.1686C3.19716 20.9125 2.40043 20.8152 2.00165 21.0357C0.534626 21.8462 1.80713 24.0419 1.80713 24.0419C1.80713 24.0419 2.61602 25.6183 1.48779 27.4647C0.359556 29.311 1.83307 29.957 1.83307 29.957L6.5616 29.0233C5.30368 30.8972 3.89339 33.2874 4.19571 34.2009C4.72498 35.7935 7.11518 34.949 7.11518 34.949C7.11518 34.949 8.81321 34.4489 10.4205 35.8989C12.0236 37.3505 12.9322 36.0221 12.9322 36.0221L12.9257 35.0843C11.4012 33.9018 9.87903 34.3484 9.87903 34.3484ZM10.3086 21.8097L7.40453 16.7927C7.40453 16.7927 7.42074 16.5884 7.53908 16.3485C7.31922 16.336 7.10074 16.3057 6.88581 16.2577C4.77361 15.7892 4.63906 17.3908 4.63906 17.3908L6.40922 20.444C7.55448 20.6953 9.0361 21.2626 10.3086 21.8097Z" fill="#D293A0"/>
<path d="M11.4632 28.3014C13.192 28.3014 14.5934 26.9 14.5934 25.1712C14.5934 23.4425 13.192 22.041 11.4632 22.041C9.73445 22.041 8.33301 23.4425 8.33301 25.1712C8.33301 26.9 9.73445 28.3014 11.4632 28.3014Z" fill="#FFCB4D"/>
<path d="M18.1491 23.1437C17.8191 23.0373 17.4923 22.9214 17.1692 22.796C16.6245 22.5787 15.8926 23.0764 15.6851 23.6194C15.5757 23.9015 15.5781 24.2071 15.6916 24.4583C15.8221 24.7444 16.045 24.8684 16.3262 24.9827C16.6464 25.1132 16.9771 25.2234 17.3053 25.3345C17.8678 25.5201 18.5713 25.0759 18.791 24.5086C19.0317 23.8853 18.714 23.3309 18.1491 23.1437ZM15.3382 19.6779C15.061 19.8855 14.7771 20.0842 14.4872 20.2736C13.9895 20.5938 13.9733 21.4756 14.2935 21.9603C14.4612 22.2132 14.7125 22.3915 14.9824 22.4442C15.288 22.5017 15.5222 22.3964 15.7775 22.231C16.0685 22.0438 16.3489 21.8412 16.631 21.6369C17.1076 21.2852 17.1578 20.456 16.8206 19.9486C16.4543 19.3894 15.818 19.3261 15.3382 19.6779ZM10.9606 18.6867C10.9185 19.0319 10.8707 19.3756 10.8099 19.7168C10.7004 20.2955 11.3302 20.9139 11.9032 21.0136C12.1999 21.0671 12.5014 21.0128 12.7251 20.8442C12.978 20.6611 13.0599 20.4212 13.115 20.1213C13.183 19.78 13.2284 19.438 13.2706 19.0935C13.3443 18.5051 12.7754 17.8996 12.1748 17.7935C11.5158 17.6784 11.0344 18.0982 10.9606 18.6867ZM6.97614 20.8775C7.22416 21.1214 7.47136 21.3654 7.70074 21.6199C8.09708 22.0592 8.97324 21.9311 9.39876 21.538C9.62165 21.3297 9.75458 21.0558 9.76349 20.7794C9.76917 20.4665 9.62652 20.2566 9.42227 20.0297C9.19289 19.7719 8.94407 19.528 8.69767 19.2848C8.27377 18.8698 7.44624 18.9557 7.00127 19.3699C6.51253 19.823 6.55143 20.4617 6.97614 20.8775ZM4.98309 24.5248C5.31783 24.6269 5.6469 24.7331 5.96948 24.8555C6.52144 25.0662 7.24037 24.5548 7.44056 24.0101C7.54431 23.724 7.53783 23.4184 7.41949 23.1696C7.28414 22.8875 7.06287 22.7668 6.77675 22.6574C6.45283 22.5334 6.12433 22.4218 5.79198 22.3226C5.22949 22.1451 4.53163 22.6006 4.32252 23.1712C4.0899 23.7977 4.41897 24.3481 4.98309 24.5248ZM5.80981 28.4477C6.12645 28.3074 6.44729 28.1769 6.77189 28.0562C7.33034 27.8576 7.54269 27.0001 7.33844 26.4562C7.29061 26.3204 7.21645 26.1954 7.1202 26.0883C7.02396 25.9812 6.90752 25.8941 6.77757 25.8321C6.48902 25.7057 6.24182 25.7568 5.95408 25.8613C5.62907 25.9772 5.30892 26.1142 4.99038 26.2512C4.44653 26.4846 4.21229 27.2838 4.42708 27.8519C4.65888 28.4777 5.26758 28.6819 5.80981 28.4477ZM8.51449 30.9376C8.63445 30.6093 8.75522 30.2835 8.89544 29.9666C9.12967 29.4284 8.65552 28.6851 8.12383 28.4566C7.85745 28.3388 7.55527 28.3312 7.28333 28.4355C6.99235 28.5587 6.86105 28.7727 6.73785 29.0539C6.59601 29.37 6.47443 29.6934 6.3561 30.0184C6.15185 30.5753 6.56926 31.2934 7.12933 31.5309C7.7437 31.7902 8.30781 31.4928 8.51449 30.9376ZM12.2955 31.2682C12.2307 30.9246 12.1691 30.5834 12.127 30.2421C12.0532 29.6553 11.2662 29.2582 10.6899 29.336C10.3908 29.3781 10.1226 29.5265 9.95802 29.7493C9.77241 30.0006 9.76998 30.2527 9.80402 30.5582C9.84779 30.9011 9.90939 31.2439 9.97261 31.5835C10.0804 32.1655 10.8107 32.5716 11.4113 32.4864C12.0735 32.3973 12.405 31.851 12.2955 31.2682ZM16.0539 29.5256C15.8167 29.2723 15.5878 29.0115 15.3674 28.7435C14.997 28.2856 14.1184 28.3609 13.6718 28.7322C13.5584 28.8214 13.4639 28.9325 13.3939 29.0587C13.3239 29.1849 13.2798 29.3238 13.2641 29.4673C13.2406 29.781 13.3678 29.9966 13.5616 30.2365C13.778 30.5047 14.009 30.7625 14.244 31.0186C14.642 31.4563 15.4744 31.4166 15.942 31.03C16.4567 30.6061 16.4518 29.9658 16.0539 29.5256ZM18.1069 27.0374C17.8099 26.8579 17.519 26.6684 17.2348 26.4692C16.7542 26.1296 15.9283 26.4425 15.5976 26.9207C15.4296 27.1581 15.3615 27.4521 15.4079 27.7393C15.4703 28.0473 15.6527 28.2232 15.9031 28.3974C16.1852 28.6 16.4794 28.7848 16.772 28.9688C17.2753 29.2801 18.0656 29.0142 18.4092 28.5141C18.7894 27.9662 18.6102 27.3527 18.1069 27.039" fill="#E75A6F"/>
<path d="M11.9372 29.1203C11.9151 28.8174 11.9016 28.5138 11.8966 28.2101C11.8877 27.6898 11.356 27.3915 10.9419 27.5042C10.7128 27.5749 10.5172 27.7264 10.3915 27.9305C10.2399 28.1704 10.2164 28.3998 10.2213 28.6681C10.227 28.9728 10.244 29.2768 10.2635 29.5783C10.2685 29.6916 10.2988 29.8024 10.3522 29.9026C10.4056 30.0027 10.4806 30.0897 10.5719 30.1571C10.6632 30.2245 10.7683 30.2707 10.8797 30.2923C10.9911 30.3139 11.106 30.3103 11.2158 30.2818C11.694 30.1521 11.9704 29.6358 11.9372 29.1203ZM9.36297 28.7637C9.51427 28.5 9.67178 28.2396 9.8355 27.9824C10.12 27.5479 9.84766 27.0041 9.44078 26.8671C9.21093 26.7951 8.96255 26.811 8.74374 26.9117C8.48437 27.0268 8.33686 27.2043 8.19178 27.4296C8.024 27.6849 7.8692 27.9475 7.71763 28.2085C7.65887 28.3056 7.62245 28.4146 7.61102 28.5275C7.59958 28.6404 7.61341 28.7545 7.65151 28.8614C7.68961 28.9683 7.75101 29.0654 7.83128 29.1457C7.91155 29.2259 8.00866 29.2873 8.11559 29.3254C8.58488 29.4834 9.10199 29.2079 9.36297 28.7637ZM7.97537 27.0454C8.2323 26.8817 8.48762 26.7245 8.75346 26.5713C9.20654 26.316 9.21303 25.7073 8.91395 25.396C8.74263 25.2285 8.51549 25.13 8.27607 25.1196C7.99401 25.1002 7.78085 25.191 7.54904 25.3223C7.28157 25.4738 7.02464 25.6335 6.76933 25.7964C6.67249 25.8554 6.58998 25.9352 6.52777 26.03C6.46555 26.1248 6.42519 26.2323 6.4096 26.3446C6.39401 26.4569 6.40358 26.5713 6.43762 26.6795C6.47166 26.7876 6.52931 26.8869 6.60642 26.97C6.9517 27.3275 7.53607 27.3218 7.97537 27.0454ZM7.29697 24.8481C7.6001 24.8814 7.89999 24.9186 8.20151 24.9673C8.71537 25.0516 9.10199 24.5839 9.06713 24.1568C9.03918 23.9187 8.92431 23.6993 8.74455 23.5408C8.53625 23.3454 8.31417 23.2838 8.05075 23.2401C7.75064 23.1917 7.44929 23.1515 7.14703 23.1193C7.03464 23.1044 6.92035 23.1146 6.81241 23.1493C6.70447 23.184 6.60558 23.2422 6.5229 23.3197C6.44022 23.3973 6.3758 23.4923 6.33432 23.5978C6.29283 23.7033 6.27531 23.8167 6.28302 23.9298C6.32436 24.4226 6.78554 24.7873 7.29697 24.8481ZM8.41872 22.5114C8.60595 22.7489 8.79237 22.9896 8.96906 23.2384C9.26976 23.6607 9.87521 23.6056 10.1516 23.279C10.3009 23.0909 10.3767 22.855 10.3648 22.6152C10.3558 22.3307 10.2408 22.1305 10.0868 21.9116C9.90926 21.6612 9.72284 21.4221 9.53723 21.1838C9.46846 21.0935 9.38047 21.0196 9.27962 20.9676C9.17878 20.9155 9.06761 20.8865 8.95417 20.8827C8.84074 20.8789 8.72788 20.9004 8.62377 20.9456C8.51967 20.9908 8.42692 21.0586 8.35226 21.1441C8.03373 21.5218 8.09776 22.1053 8.41872 22.5114ZM10.7619 21.2827C10.7619 21.5866 10.7579 21.8906 10.7425 22.1945C10.7109 22.7165 11.219 23.048 11.6421 22.9669C11.8618 22.9191 12.0725 22.7813 12.22 22.5811C12.3886 22.3501 12.4267 22.124 12.4413 21.8565C12.4599 21.5526 12.4624 21.2478 12.4648 20.9447C12.4671 20.8314 12.4443 20.7189 12.398 20.6154C12.3516 20.512 12.2829 20.4201 12.1968 20.3464C12.1107 20.2726 12.0093 20.2189 11.8999 20.1891C11.7906 20.1593 11.6759 20.1541 11.5643 20.1739C11.0796 20.2712 10.766 20.7664 10.7619 21.2827ZM13.191 21.6904C13.0184 21.9424 12.8449 22.1896 12.6626 22.4336C12.3489 22.8502 12.5848 23.4111 12.9787 23.5756C13.1878 23.6623 13.4407 23.664 13.6765 23.5797C13.9424 23.4848 14.1004 23.3163 14.2658 23.1031C14.4489 22.8583 14.62 22.6079 14.791 22.3574C14.8564 22.2648 14.9003 22.1587 14.9196 22.0469C14.9388 21.9352 14.933 21.8205 14.9024 21.7113C14.8718 21.6021 14.8173 21.5011 14.7428 21.4156C14.6683 21.3301 14.5756 21.2622 14.4716 21.217C14.0137 21.0265 13.4796 21.264 13.191 21.6904ZM15.1873 23.3843C14.895 23.4693 14.6007 23.5474 14.3047 23.6186C13.7997 23.7369 13.6182 24.3164 13.8167 24.6974C13.9237 24.8967 14.1174 25.0613 14.3517 25.1464C14.6183 25.2436 14.8469 25.2177 15.1079 25.1569C15.4045 25.0888 15.6979 25.0062 15.9889 24.9235C16.4858 24.7808 16.686 24.2394 16.4752 23.8423C16.2475 23.4046 15.6834 23.2425 15.1873 23.3843ZM14.2617 27.9532C14.0734 27.7146 13.8899 27.4722 13.7114 27.2262C13.4123 26.8015 12.8052 26.8549 12.5256 27.1824C12.3769 27.3707 12.3017 27.6066 12.314 27.8462C12.3246 28.1299 12.4348 28.3309 12.5888 28.5497C12.7655 28.8002 12.9527 29.0393 13.1392 29.276C13.4569 29.6845 14.034 29.6634 14.3217 29.3213C14.641 28.942 14.5794 28.3601 14.2617 27.9532ZM15.5156 26.0663C15.2395 25.9387 14.9665 25.8044 14.697 25.6635C14.239 25.4187 13.7195 25.7397 13.6198 26.1555C13.5671 26.3751 13.606 26.6256 13.726 26.8436C13.8629 27.0941 14.0526 27.2229 14.2909 27.3494C14.5624 27.4944 14.8331 27.6233 15.1095 27.7538C15.2114 27.8037 15.3231 27.8304 15.4365 27.8319C15.55 27.8334 15.6623 27.8097 15.7655 27.7624C15.8686 27.7152 15.96 27.6456 16.033 27.5588C16.1059 27.4719 16.1587 27.3699 16.1875 27.2602C16.3042 26.778 15.9849 26.286 15.5188 26.0663" fill="white"/>
<path d="M30.5534 21.4853L30.0534 19.1203C26.1726 19.9421 23.6082 23.3268 21.9952 26.5827C19.6674 15.875 13.7434 14.2637 13.4103 14.1826L12.8413 16.5331C12.9313 16.555 21.5608 18.9039 20.4139 39.8824C20.4139 39.8807 20.4188 39.8807 20.4204 39.8791C20.4111 40.1945 20.526 40.5008 20.7404 40.7323C20.9547 40.9638 21.2514 41.1018 21.5665 41.1168C21.8855 41.1315 22.1974 41.0193 22.4339 40.8047C22.6704 40.5901 22.8123 40.2905 22.8284 39.9715C22.8305 39.9013 22.8264 39.8311 22.8163 39.7616C22.8217 39.7594 22.8293 39.7581 22.839 39.7575C23.0011 36.5439 22.9338 33.7435 22.7061 31.2804C23.5563 28.6324 26.013 22.4466 30.5534 21.4813" fill="#78B153"/>
<path d="M21.888 39.9485C21.8855 39.9501 21.888 39.9501 21.888 39.9501C23.0356 18.9724 14.4037 16.6236 14.3169 16.6017L14.7644 14.7496C14.0211 14.3436 13.5064 14.2034 13.4157 14.1807L12.8467 16.5312C12.9366 16.553 21.5662 18.9019 20.4193 39.8804C20.4193 39.8788 20.4242 39.8788 20.4258 39.8772C20.4165 40.1925 20.5314 40.4989 20.7457 40.7303C20.9601 40.9618 21.2567 41.0999 21.5718 41.1148C21.8499 41.1286 22.1068 41.0411 22.3183 40.8944C22.1817 40.7783 22.0729 40.633 21.9998 40.4694C21.9268 40.3057 21.8913 40.1277 21.8961 39.9485" fill="#5C8E3F"/>
<path d="M27.7676 20.6751C27.7676 20.6751 26.7358 18.7266 28.673 17.5546C30.6101 16.3842 35.3735 17.1299 37.0261 17.9566L37.0067 18.3335C37.0067 18.3335 36.1613 18.3684 35.4894 20.6102C34.815 22.8537 30.063 21.8771 30.063 21.8771L28.6981 21.9281L27.3786 21.8649L27.7676 20.6751ZM16.5096 16.8811C16.5096 16.8811 18.1031 14.473 15.7242 12.7004C13.3454 10.9295 7.042 11.3039 4.78229 12.176L4.75879 12.668C4.75879 12.668 5.85703 12.8196 6.45519 15.8274C7.05011 18.836 13.3672 18.1593 13.3672 18.1593L15.1439 18.3992L16.8719 18.4818L16.5096 16.8811Z" fill="#78B153"/>
<path d="M17.0073 15.4702C15.0353 15.9289 12.1199 16.2361 11.2178 14.3606C9.80991 11.4395 8.64439 11.5757 8.64439 11.5757L8.62737 11.4922C7.05497 11.5919 5.63252 11.8488 4.78229 12.1763L4.75879 12.6682C4.75879 12.6682 5.85865 12.8206 6.45519 15.8276C7.05173 18.8362 13.3672 18.1603 13.3672 18.1603L15.1439 18.3994L16.8719 18.4821L16.5088 16.8805C16.5088 16.8805 16.9043 16.2856 17.0073 15.4702ZM21.3427 29.9079C21.3427 29.9079 25.4115 21.1786 28.8181 20.4897C28.8181 20.4897 34.6124 21.4429 35.8185 19.6986C35.8185 19.6986 36.4904 18.2203 37.2993 18.337C37.2993 18.337 34.0904 15.7004 29.6496 17.31C29.6496 17.31 27.21 17.3984 27.5634 20.0682C27.5634 20.0682 25.1578 21.0814 21.9943 26.5766L20.7551 28.4408L21.3427 29.9062" fill="#5C8E3F"/>
<path d="M31.5032 13.0812C31.5032 13.0812 30.5468 11.5906 31.4886 9.64377C32.4328 7.69611 30.9034 7.19602 30.9034 7.19602L26.0776 8.64684C27.5827 6.87019 29.5166 4.34463 29.2913 3.32906C28.9225 1.69182 26.4626 2.29241 26.4626 2.29241C26.4626 2.29241 24.7208 2.62148 23.2684 1.01667C21.8184 -0.588148 20.7801 0.64059 20.7801 0.64059L20.2452 6.41225C19.0675 4.48404 17.4764 2.18948 16.5176 2.0833C14.8512 1.89851 14.621 4.42163 14.621 4.42163C14.621 4.42163 14.3657 6.17477 12.3775 7.02743C10.3885 7.88009 11.2144 9.25877 11.2144 9.25877L15.6106 11.2348C13.5001 12.0348 10.9664 13.1679 10.686 14.0878C10.1948 15.691 12.6328 16.3856 12.6328 16.3856C12.6328 16.3856 14.3065 16.9611 14.7783 19.0725C15.2451 21.1838 16.7567 20.6286 16.7567 20.6286L20.5361 15.2128C20.3132 17.3404 19.9445 22.0227 20.9074 22.8778C22.1628 23.9923 23.8049 22.0673 23.8049 22.0673C23.8049 22.0673 25.0288 20.7843 27.1442 21.2349C29.2605 21.688 29.3805 20.084 29.3805 20.084L26.675 15.4892C28.6737 16.0865 30.8953 16.5818 31.6037 16.0914C32.9848 15.1407 31.5032 13.0836 31.5032 13.0836" fill="#F2ABB9"/>
<path d="M20.422 15.3788C20.422 15.3788 21.8469 21.3928 25.7228 21.174C25.7228 21.174 24.0937 21.4455 23.8059 22.0672C23.8059 22.0672 22.394 23.5715 21.3914 23.1654C21.3914 23.1654 20.6182 22.9287 20.4747 21.9375C20.3296 20.9495 20.2891 17.5404 20.422 15.3788ZM15.2372 17.4999C15.2372 17.4999 12.7975 16.8061 13.2903 15.2013C13.5724 14.2814 16.1036 13.1491 18.2142 12.3507L13.8204 10.3739C13.8204 10.3739 12.9921 8.99278 14.9819 8.14174C16.9717 7.2907 17.2254 5.53594 17.2254 5.53594C17.2254 5.53594 17.3656 4.03568 18.1931 3.43509C17.569 2.67807 16.9749 2.13584 16.521 2.08559C14.8546 1.90079 14.6244 4.42392 14.6244 4.42392C14.6244 4.42392 14.3691 6.17706 12.3809 7.02972C10.3919 7.88238 11.2178 9.26106 11.2178 9.26106L15.6141 11.2371C13.5035 12.0371 10.9698 13.1702 10.6894 14.0901C10.1982 15.6933 12.6362 16.3879 12.6362 16.3879C12.6362 16.3879 14.31 16.9634 14.7817 19.0747C15.2485 21.1861 16.7601 20.6309 16.7601 20.6309L17.2951 19.8634C16.7391 18.017 15.2372 17.4999 15.2372 17.4999ZM22.8479 7.52818L23.3828 1.75652C23.3828 1.75652 23.5158 1.60009 23.7492 1.47365C23.5789 1.33369 23.4183 1.18232 23.2685 1.02057C21.8185 -0.584242 20.7803 0.644496 20.7803 0.644496L20.4569 4.15726C21.2463 5.02694 22.1265 6.34564 22.8479 7.52818Z" fill="#D293A0"/>
<path d="M21.8372 14.0651C23.566 14.0651 24.9674 12.6637 24.9674 10.9349C24.9674 9.20613 23.566 7.80469 21.8372 7.80469C20.1085 7.80469 18.707 9.20613 18.707 10.9349C18.707 12.6637 20.1085 14.0651 21.8372 14.0651Z" fill="#FFCB4D"/>
<path d="M28.4659 13.1536C28.2576 12.8761 28.0578 12.5923 27.8669 12.3026C27.5467 11.809 26.6649 11.792 26.1794 12.1146C26.0579 12.1918 25.953 12.2924 25.8708 12.4105C25.7886 12.5287 25.7306 12.662 25.7004 12.8027C25.6412 13.1115 25.7482 13.3417 25.9144 13.5978C26.1016 13.8888 26.3042 14.1708 26.5093 14.4496C26.8602 14.9262 27.691 14.974 28.1984 14.6369C28.7536 14.2689 28.8168 13.6326 28.4659 13.1536ZM28.1806 8.70068C27.8345 8.70933 27.4882 8.7069 27.1423 8.69338C26.5514 8.66664 26.0278 9.37664 26.0084 9.95697C26.0008 10.1012 26.0218 10.2455 26.0702 10.3815C26.1186 10.5176 26.1934 10.6427 26.2904 10.7497C26.5068 10.975 26.7565 11.0236 27.0637 11.0366C27.4073 11.0536 27.755 11.0512 28.1027 11.0463C28.6944 11.0366 29.2156 10.3882 29.235 9.77947C29.2585 9.11161 28.7747 8.69176 28.1806 8.70068ZM25.1841 5.3565C24.9499 5.61343 24.7116 5.86712 24.4635 6.11028C24.0413 6.51878 24.1936 7.38765 24.6062 7.8002C24.8169 8.01417 25.0974 8.1398 25.3729 8.13818C25.6874 8.13575 25.8909 7.9858 26.1121 7.77426C26.3626 7.53516 26.5984 7.28228 26.8327 7.02697C27.2314 6.5901 27.1188 5.76581 26.6916 5.333C26.2191 4.85722 25.5845 4.91963 25.1841 5.3565ZM20.6614 4.83372C20.7246 5.17657 20.7854 5.51941 20.8252 5.86145C20.8932 6.44583 21.6811 6.85028 22.2565 6.77571C22.558 6.73518 22.8255 6.58848 22.9933 6.36802C23.1789 6.11676 23.1854 5.86226 23.1497 5.55832C23.11 5.21628 23.0484 4.87343 22.9892 4.5314C22.8839 3.94783 22.1593 3.53933 21.557 3.61876C20.8932 3.7063 20.5561 4.24934 20.6614 4.83372ZM16.9282 6.65981C17.1389 6.93781 17.3472 7.2142 17.5418 7.50112C17.8684 7.99148 18.751 7.99229 19.2301 7.66403C19.4805 7.4922 19.6515 7.23932 19.6985 6.9678C19.7512 6.65818 19.641 6.43124 19.4724 6.17593C19.2775 5.88908 19.0742 5.60799 18.8629 5.333C18.5047 4.86209 17.6747 4.82967 17.1722 5.17495C16.6202 5.55102 16.57 6.18809 16.9282 6.65981ZM15.3331 10.3347C15.6711 10.406 16.0115 10.483 16.3446 10.5738C16.912 10.7326 17.5839 10.1572 17.7314 9.59467C17.7715 9.45621 17.7836 9.31116 17.767 9.16797C17.7505 9.02478 17.7056 8.88632 17.635 8.76065C17.4729 8.49156 17.2411 8.38944 16.946 8.30758C16.6116 8.21761 16.2746 8.13788 15.9353 8.06848C15.3574 7.94366 14.7033 8.46076 14.5485 9.04758C14.3783 9.69355 14.7528 10.2123 15.3331 10.3347ZM16.0974 13.9301C16.3816 13.7298 16.6725 13.5393 16.9695 13.3587C17.4712 13.0556 17.5158 12.1753 17.2143 11.6793C17.1406 11.5552 17.0431 11.4469 16.9273 11.3607C16.8116 11.2744 16.68 11.2119 16.54 11.1768C16.2336 11.1079 16.001 11.2068 15.7392 11.364C15.4417 11.5399 15.1532 11.7344 14.8687 11.9314C14.38 12.2661 14.3046 13.0945 14.6207 13.6116C14.9732 14.1797 15.6063 14.264 16.0974 13.9301ZM18.991 16.3868C19.136 16.0691 19.2836 15.7554 19.4465 15.4514C19.7261 14.9319 19.3152 14.1506 18.7989 13.8807C18.5298 13.7429 18.2275 13.708 17.964 13.7948C17.6674 13.8904 17.5158 14.0955 17.3716 14.3645C17.2054 14.6685 17.0611 14.9846 16.9136 15.2974C16.6656 15.8356 17.0247 16.587 17.5645 16.8666C18.1561 17.1778 18.7429 16.925 18.991 16.3868ZM23.0614 17.1462C23.0146 16.8028 22.9795 16.4578 22.956 16.112C22.9187 15.5228 22.1576 15.0778 21.5797 15.1199C21.2758 15.1426 20.9986 15.2731 20.8211 15.4839C20.6193 15.7262 20.5982 15.9758 20.6168 16.283C20.6379 16.6283 20.6776 16.9728 20.7206 17.3164C20.7927 17.9049 21.4938 18.3531 22.0993 18.3077C22.7655 18.2599 23.1319 17.7363 23.0614 17.1462ZM26.177 16.3C26.0383 15.9821 25.9109 15.6593 25.7952 15.3323C25.5999 14.7763 24.7472 14.5534 24.1985 14.752C24.0626 14.799 23.9373 14.8725 23.8298 14.968C23.7223 15.0636 23.6347 15.1794 23.572 15.3088C23.4431 15.5965 23.4901 15.8437 23.5931 16.1323C23.7065 16.4597 23.8378 16.7815 23.9724 17.1C24.2017 17.6455 24.9985 17.887 25.5691 17.6787C26.1989 17.451 26.4063 16.8471 26.177 16.3Z" fill="#E75A6F"/>
<path d="M19.9357 14.4281C20.0954 14.1696 20.255 13.9127 20.4285 13.6614C20.7235 13.2334 20.4625 12.6815 20.0597 12.534C19.8321 12.4578 19.5845 12.4685 19.3643 12.564C19.1009 12.6709 18.9509 12.8444 18.7977 13.0665C18.6251 13.3186 18.463 13.5739 18.3025 13.8332C18.2418 13.929 18.2031 14.037 18.1891 14.1495C18.1752 14.262 18.1864 14.3762 18.2219 14.4839C18.2574 14.5916 18.3163 14.6901 18.3945 14.7722C18.4726 14.8544 18.568 14.9182 18.6737 14.959C19.1373 15.1284 19.6642 14.8674 19.9357 14.4281ZM18.0464 12.6483C18.3215 12.5204 18.5999 12.3996 18.8812 12.286C19.3659 12.0963 19.4583 11.4941 19.2054 11.148C19.0595 10.9566 18.8479 10.8261 18.6113 10.7816C18.3349 10.7233 18.112 10.7841 17.8648 10.883C17.5779 10.994 17.3007 11.1172 17.0243 11.2436C16.9206 11.289 16.8282 11.3568 16.7538 11.4422C16.6794 11.5275 16.6248 11.6283 16.5939 11.7372C16.5631 11.8462 16.5568 11.9606 16.5754 12.0723C16.594 12.184 16.6372 12.2902 16.7018 12.3832C16.9944 12.7828 17.5747 12.859 18.0464 12.6483ZM17.9102 10.4429C18.2134 10.4564 18.5162 10.4772 18.8188 10.5053C19.3351 10.5604 19.6934 10.0684 19.6293 9.64206C19.5866 9.40607 19.4581 9.1942 19.2686 9.04715C19.0514 8.86883 18.8261 8.8202 18.5578 8.79265C18.255 8.763 17.9515 8.74111 17.6476 8.72699C17.5347 8.7193 17.4215 8.73679 17.3161 8.77819C17.2108 8.81959 17.116 8.88386 17.0385 8.96638C16.961 9.04889 16.9028 9.14759 16.8681 9.25533C16.8335 9.36307 16.8231 9.47717 16.8379 9.58938C16.9133 10.0797 17.3931 10.4145 17.9102 10.4429ZM18.6275 8.25933C18.8566 8.46142 19.0793 8.66864 19.2954 8.88099C19.6642 9.24815 20.2518 9.0901 20.4715 8.72132C20.5833 8.52599 20.6173 8.27473 20.5647 8.03076C20.5071 7.75114 20.362 7.57282 20.1724 7.38479C19.9551 7.17188 19.7327 6.96433 19.5053 6.76231C19.4222 6.68502 19.323 6.62719 19.2147 6.593C19.1065 6.55881 18.9921 6.54912 18.8796 6.56464C18.7672 6.58016 18.6596 6.62049 18.5647 6.68272C18.4698 6.74494 18.3899 6.8275 18.3309 6.92441C18.0804 7.35155 18.2458 7.91567 18.6275 8.25933ZM20.8929 7.00303C20.9097 7.30563 20.9194 7.60957 20.9221 7.91486C20.9205 8.4344 21.4457 8.73996 21.8639 8.63216C22.0811 8.57543 22.2813 8.42386 22.4224 8.21556C22.5764 7.97727 22.6015 7.7479 22.6015 7.47962C22.6015 7.17324 22.5893 6.87092 22.5739 6.5686C22.5702 6.45511 22.5413 6.34387 22.4892 6.24296C22.4372 6.14205 22.3633 6.05401 22.2729 5.98524C22.1826 5.91647 22.078 5.86869 21.9669 5.84538C21.8558 5.82207 21.7409 5.82381 21.6305 5.85048C21.1531 5.97449 20.8662 6.48674 20.8929 7.00303ZM23.5165 7.35885C23.342 7.60633 23.1607 7.85002 22.9727 8.08993C22.6477 8.49681 22.8673 9.06336 23.2596 9.23843C23.4663 9.3284 23.7176 9.33731 23.955 9.2595C24.2266 9.17035 24.3887 9.00662 24.5556 8.79832C24.7453 8.5576 24.9244 8.31282 25.1003 8.06805C25.1679 7.97705 25.2145 7.87219 25.2367 7.76102C25.2589 7.64985 25.2562 7.53514 25.2288 7.42514C25.2014 7.31514 25.1499 7.2126 25.078 7.12489C25.0062 7.03719 24.9158 6.9665 24.8134 6.91793C24.3611 6.71773 23.8197 6.94062 23.5165 7.35885ZM25.2608 9.09659C24.9764 9.20325 24.6897 9.30351 24.4008 9.39729C23.9032 9.55534 23.771 10.1486 23.9988 10.5117C24.1171 10.703 24.323 10.8497 24.5621 10.917C24.8361 10.994 25.063 10.9486 25.3199 10.8692C25.6109 10.7768 25.8954 10.6714 26.1799 10.5652C26.2869 10.5277 26.3842 10.4667 26.4646 10.3867C26.5451 10.3068 26.6067 10.2098 26.6449 10.103C26.6831 9.99625 26.697 9.88227 26.6855 9.76943C26.6741 9.65658 26.6376 9.54772 26.5787 9.45078C26.3185 9.03256 25.7446 8.91584 25.2608 9.09659ZM25.9051 11.6294C25.6177 11.5313 25.3331 11.4251 25.0517 11.3109C24.571 11.1148 24.088 11.4844 24.0296 11.9091C23.9996 12.132 24.0612 12.3784 24.2047 12.5834C24.3643 12.8177 24.5686 12.9295 24.8142 13.0308C25.0962 13.1467 25.3832 13.2497 25.6676 13.351C26.1548 13.522 26.6313 13.1978 26.6897 12.7512C26.7586 12.2608 26.3922 11.8029 25.9051 11.6294ZM22.5058 14.8229C22.4885 14.5192 22.4794 14.2152 22.4783 13.911C22.4783 13.3907 21.9531 13.0835 21.5348 13.1897C21.3044 13.2568 21.1062 13.4054 20.9772 13.6079C20.8216 13.8438 20.7957 14.0731 20.7957 14.3406C20.7932 14.647 20.8086 14.9509 20.8232 15.2524C20.8269 15.3659 20.8557 15.477 20.9076 15.5779C20.9595 15.6789 21.0332 15.767 21.1233 15.8359C21.2135 15.9049 21.3178 15.9529 21.4288 15.9766C21.5397 16.0003 21.6546 15.9991 21.765 15.973C22.2424 15.849 22.5285 15.3375 22.5058 14.8229ZM24.6221 14.0123C24.4713 13.7489 24.3272 13.4816 24.1901 13.2108C23.9558 12.7447 23.3488 12.7058 23.0254 12.9895C22.8489 13.1514 22.7383 13.3728 22.7149 13.6111C22.6809 13.8932 22.7611 14.1096 22.8811 14.3503C23.0197 14.6243 23.1656 14.8885 23.3147 15.1527C23.3689 15.2525 23.4447 15.339 23.5365 15.4058C23.6282 15.4727 23.7337 15.5183 23.8453 15.5393C23.9569 15.5604 24.0718 15.5563 24.1816 15.5274C24.2914 15.4985 24.3934 15.4456 24.4802 15.3724C24.8523 15.0466 24.8758 14.4622 24.6221 14.0123Z" fill="white"/>
<path d="M22.0409 25.6052L19.8331 23.1348C19.8331 23.1348 19.1522 19.2046 22.6804 21.4724L23.7041 24.6334L22.0409 25.6052Z" fill="#E0E7EC"/>
<path d="M23.7484 24.6871L22.7109 21.5415C22.7109 21.5415 23.6511 17.6656 25.9854 21.1516L25.6644 24.4593L23.75 24.6871" fill="#CBD5DC"/>
<path d="M24.5738 24.3322L25.9987 21.1266C25.9987 21.1266 29.4969 18.7567 28.8436 23.1497L26.237 25.5164L24.5738 24.3322ZM24.8081 29.0794L24.6209 32.3887C24.6209 32.3887 22.3239 35.647 21.4331 31.5506L22.9439 28.5898L24.8081 29.0794ZM26.2103 26.1777L29.3915 27.1787C29.3915 27.1787 31.7898 30.4597 27.4617 30.437L25.0845 28.0825L26.2103 26.1769" fill="#E0E7EC"/>
<path d="M22.9524 28.5214L21.461 31.4789C21.461 31.4789 18.0553 33.5538 18.8714 29.4397L21.4375 27.3291L22.9524 28.5214Z" fill="#CBD5DC"/>
<path d="M21.9628 28.1544L18.8715 29.3434C18.8715 29.3434 14.9543 28.5913 18.3236 26.0933L21.6426 26.2554L21.9628 28.1544Z" fill="#E0E7EC"/>
<path d="M21.6392 26.857L18.4174 26.0797C18.4174 26.0797 15.622 23.2372 19.8139 23.0938L22.453 25.1103L21.6425 26.857M25.1439 25.4167L28.4021 23.4228C28.4021 23.4228 33.0042 23.4593 29.7006 26.998L25.9001 27.5078L25.1406 25.4167" fill="#CBD5DC"/>
<path d="M23.6635 29.0335C25.0735 29.0335 26.2166 27.8904 26.2166 26.4804C26.2166 25.0703 25.0735 23.9272 23.6635 23.9272C22.2534 23.9272 21.1104 25.0703 21.1104 26.4804C21.1104 27.8904 22.2534 29.0335 23.6635 29.0335Z" fill="#FBB11C"/>
<path d="M23.1017 26.972C22.7619 26.587 22.5461 26.1084 22.4825 25.5989C22.4189 25.0893 22.5104 24.5725 22.7451 24.1157C22.3554 24.2591 22.0064 24.4953 21.7285 24.8039C21.4507 25.1125 21.2522 25.4842 21.1503 25.8868C21.0485 26.2893 21.0463 26.7107 21.1439 27.1143C21.2416 27.5179 21.4362 27.8917 21.7109 28.2031C21.9331 28.4544 22.2026 28.6595 22.504 28.8066C22.8055 28.9537 23.133 29.0399 23.4678 29.0604C23.8026 29.0809 24.1381 29.0352 24.4553 28.9259C24.7724 28.8166 25.0649 28.6459 25.316 28.4236C25.5624 28.2064 25.7537 27.9519 25.8939 27.6755C25.4121 27.853 24.8878 27.8808 24.3899 27.7552C23.8919 27.6297 23.4435 27.3567 23.1033 26.972" fill="#CD8D2A"/>
<path d="M25.6914 28.252L27.6885 30.8958C27.6885 30.8958 28.0451 34.8674 24.7147 32.3207L23.9536 29.086L25.6914 28.252Z" fill="#CBD5DC"/>
</svg>
